<svg xmlns="http://www.w3.org/2000/svg" xmlns:xlink="http://www.w3.org/1999/xlink" viewBox="0 0 1366 3811"><defs><style>.cls-1{fill:none;}.cls-2{fill:#a0a5a4;}.cls-3{opacity:0.1;fill:url(#New_Pattern_copy);}</style><pattern id="New_Pattern_copy" data-name="New Pattern copy" width="160" height="230" patternTransform="translate(0 -105.44) scale(1 1.1)" patternUnits="userSpaceOnUse" viewBox="0 0 160 230"><rect class="cls-1" width="160" height="230"/><path class="cls-2" d="M260,217.16a14.94,14.94,0,0,1-10.38-4.2l-.2-.19a13.58,13.58,0,0,0-18.88,0l-.2.19a14.92,14.92,0,0,1-20.76,0l-.2-.19a13.58,13.58,0,0,0-18.88,0l-.2.19a14.92,14.92,0,0,1-20.76,0l-.2-.19a13.56,13.56,0,0,0-9.44-3.8v-1.36a14.92,14.92,0,0,1,10.38,4.18l.2.2a13.58,13.58,0,0,0,18.88,0l.2-.2a14.93,14.93,0,0,1,20.76,0l.2.2a13.58,13.58,0,0,0,18.88,0l.2-.2a14.93,14.93,0,0,1,20.76,0l.2.2a13.58,13.58,0,0,0,18.88,0l.2-.2a14.93,14.93,0,0,1,20.76,0l.2.2a13.58,13.58,0,0,0,18.88,0l.2-.2a14.92,14.92,0,0,1,10.38-4.18V209a13.56,13.56,0,0,0-9.44,3.8l-.2.19a14.92,14.92,0,0,1-20.76,0l-.2-.19a13.58,13.58,0,0,0-18.88,0l-.2.19A14.94,14.94,0,0,1,260,217.16Z"/><path class="cls-2" d="M260,229.22A15,15,0,0,1,249.58,225l-.2-.19a13.49,13.49,0,0,0-18.76,0l-.2.19a15,15,0,0,1-20.88,0l-.2-.19a13.49,13.49,0,0,0-18.76,0l-.2.19a15,15,0,0,1-20.88,0l-.21-.19a13.48,13.48,0,0,0-9.37-3.78v-1.54a15,15,0,0,1,10.44,4.21l.2.2a13.5,13.5,0,0,0,18.76,0l.2-.19a15,15,0,0,1,20.88,0l.2.2a13.5,13.5,0,0,0,18.76,0l.2-.19a15,15,0,0,1,20.88,0l.2.2a13.5,13.5,0,0,0,18.76,0l.2-.19a15,15,0,0,1,20.88,0l.2.19a13.49,13.49,0,0,0,18.76,0l.2-.19a15,15,0,0,1,10.44-4.21V221a13.52,13.52,0,0,0-9.38,3.78l-.19.19a15,15,0,0,1-20.89,0l-.2-.19a13.49,13.49,0,0,0-18.76,0l-.2.19A15,15,0,0,1,260,229.22Z"/><path class="cls-2" d="M100,217.16A14.94,14.94,0,0,1,89.64,213l-.2-.19a13.58,13.58,0,0,0-18.88,0l-.2.19a14.92,14.92,0,0,1-20.76,0l-.2-.19a13.58,13.58,0,0,0-18.88,0l-.2.19a14.92,14.92,0,0,1-20.76,0l-.2-.19A13.56,13.56,0,0,0-.08,209v-1.36a14.92,14.92,0,0,1,10.38,4.18l.2.2a13.58,13.58,0,0,0,18.88,0l.2-.2a14.93,14.93,0,0,1,20.76,0l.2.2a13.58,13.58,0,0,0,18.88,0l.2-.2a14.93,14.93,0,0,1,20.76,0l.2.2a13.58,13.58,0,0,0,18.88,0l.2-.2a14.93,14.93,0,0,1,20.76,0l.2.2a13.58,13.58,0,0,0,18.88,0l.2-.2a14.92,14.92,0,0,1,10.38-4.18V209a13.56,13.56,0,0,0-9.44,3.8l-.2.19a14.92,14.92,0,0,1-20.76,0l-.2-.19a13.58,13.58,0,0,0-18.88,0l-.2.19A14.94,14.94,0,0,1,100,217.16Z"/><path class="cls-2" d="M100,229.22A15,15,0,0,1,89.58,225l-.2-.19a13.49,13.49,0,0,0-18.76,0l-.2.19a15,15,0,0,1-20.88,0l-.2-.19a13.49,13.49,0,0,0-18.76,0l-.2.19A15,15,0,0,1,9.5,225l-.21-.19A13.48,13.48,0,0,0-.08,221v-1.54a15,15,0,0,1,10.44,4.21l.2.2a13.5,13.5,0,0,0,18.76,0l.2-.19a15,15,0,0,1,20.88,0l.2.2a13.5,13.5,0,0,0,18.76,0l.2-.19a15,15,0,0,1,20.88,0l.2.2a13.5,13.5,0,0,0,18.76,0l.2-.19a15,15,0,0,1,20.88,0l.2.19a13.49,13.49,0,0,0,18.76,0l.2-.19a15,15,0,0,1,10.44-4.21V221a13.52,13.52,0,0,0-9.38,3.78l-.19.19a15,15,0,0,1-20.89,0l-.2-.19a13.49,13.49,0,0,0-18.76,0l-.2.19A15,15,0,0,1,100,229.22Z"/><path class="cls-2" d="M-60,217.16A14.94,14.94,0,0,1-70.36,213l-.2-.19a13.58,13.58,0,0,0-18.88,0l-.2.19a14.92,14.92,0,0,1-20.76,0l-.2-.19a13.58,13.58,0,0,0-18.88,0l-.2.19a14.92,14.92,0,0,1-20.76,0l-.2-.19a13.56,13.56,0,0,0-9.44-3.8v-1.36a14.92,14.92,0,0,1,10.38,4.18l.2.2a13.58,13.58,0,0,0,18.88,0l.2-.2a14.93,14.93,0,0,1,20.76,0l.2.2a13.58,13.58,0,0,0,18.88,0l.2-.2a14.93,14.93,0,0,1,20.76,0l.2.2a13.58,13.58,0,0,0,18.88,0l.2-.2a14.93,14.93,0,0,1,20.76,0l.2.2a13.58,13.58,0,0,0,18.88,0l.2-.2A14.92,14.92,0,0,1,.08,207.61V209a13.56,13.56,0,0,0-9.44,3.8l-.2.19a14.92,14.92,0,0,1-20.76,0l-.2-.19a13.58,13.58,0,0,0-18.88,0l-.2.19A14.94,14.94,0,0,1-60,217.16Z"/><path class="cls-2" d="M-60,229.22A15,15,0,0,1-70.42,225l-.2-.19a13.49,13.49,0,0,0-18.76,0l-.2.19a15,15,0,0,1-20.88,0l-.2-.19a13.49,13.49,0,0,0-18.76,0l-.2.19a15,15,0,0,1-20.88,0l-.21-.19a13.48,13.48,0,0,0-9.37-3.78v-1.54a15,15,0,0,1,10.44,4.21l.2.2a13.5,13.5,0,0,0,18.76,0l.2-.19a15,15,0,0,1,20.88,0l.2.2a13.5,13.5,0,0,0,18.76,0l.2-.19a15,15,0,0,1,20.88,0l.2.2a13.5,13.5,0,0,0,18.76,0l.2-.19a15,15,0,0,1,20.88,0l.2.19a13.49,13.49,0,0,0,18.76,0l.2-.19A15,15,0,0,1,.08,219.48V221A13.52,13.52,0,0,0-9.3,224.8l-.19.19a15,15,0,0,1-20.89,0l-.2-.19a13.49,13.49,0,0,0-18.76,0l-.2.19A15,15,0,0,1-60,229.22Z"/><path class="cls-2" d="M260,11.28A15.11,15.11,0,0,1,249.51,7l-.2-.19a13.39,13.39,0,0,0-18.62,0l-.2.19a15.11,15.11,0,0,1-21,0l-.2-.19a13.39,13.39,0,0,0-18.62,0l-.2.19a15.11,15.11,0,0,1-21,0l-.2-.19a13.35,13.35,0,0,0-9.31-3.75V1.35a15.1,15.1,0,0,1,10.51,4.24l.2.19a13.37,13.37,0,0,0,18.62,0l.2-.19a15.11,15.11,0,0,1,21,0l.2.19a13.37,13.37,0,0,0,18.62,0l.2-.19a15.11,15.11,0,0,1,21,0l.2.19a13.37,13.37,0,0,0,18.62,0l.2-.19a15.11,15.11,0,0,1,21,0l.2.19a13.37,13.37,0,0,0,18.62,0l.2-.19a15.1,15.1,0,0,1,10.51-4.24V3.08a13.35,13.35,0,0,0-9.31,3.75l-.2.19a15.11,15.11,0,0,1-21,0l-.2-.19a13.39,13.39,0,0,0-18.62,0l-.2.19A15.11,15.11,0,0,1,260,11.28Z"/><path class="cls-2" d="M260,23.33a15.2,15.2,0,0,1-10.57-4.27l-.2-.2a13.3,13.3,0,0,0-18.5,0l-.2.2a15.2,15.2,0,0,1-21.14,0l-.2-.2a13.3,13.3,0,0,0-18.5,0l-.2.2a15.2,15.2,0,0,1-21.14,0l-.2-.2a13.3,13.3,0,0,0-9.25-3.72V13.23a15.15,15.15,0,0,1,10.57,4.26l.2.19a13.3,13.3,0,0,0,18.5,0l.2-.19a15.19,15.19,0,0,1,21.14,0l.2.19a13.3,13.3,0,0,0,18.5,0l.2-.19a15.19,15.19,0,0,1,21.14,0l.2.19a13.3,13.3,0,0,0,18.5,0l.2-.19a15.19,15.19,0,0,1,21.14,0l.2.19a13.3,13.3,0,0,0,18.5,0l.2-.19a15.15,15.15,0,0,1,10.57-4.26v1.91a13.29,13.29,0,0,0-9.25,3.72l-.2.19a15.2,15.2,0,0,1-21.14,0l-.2-.2a13.3,13.3,0,0,0-18.5,0l-.2.2A15.2,15.2,0,0,1,260,23.33Z"/><path class="cls-2" d="M260,35.39a15.31,15.31,0,0,1-10.64-4.3l-.2-.2a13.21,13.21,0,0,0-18.36,0l-.2.2a15.3,15.3,0,0,1-21.28,0l-.2-.2a13.21,13.21,0,0,0-18.36,0l-.2.2a15.3,15.3,0,0,1-21.28,0l-.2-.2a13.21,13.21,0,0,0-9.18-3.7V25.1a15.3,15.3,0,0,1,10.64,4.28l.2.2a13.21,13.21,0,0,0,18.36,0l.2-.2a15.32,15.32,0,0,1,21.28,0l.2.2a13.21,13.21,0,0,0,18.36,0l.2-.2a15.32,15.32,0,0,1,21.28,0l.2.2a13.21,13.21,0,0,0,18.36,0l.2-.2a15.32,15.32,0,0,1,21.28,0l.2.2a13.22,13.22,0,0,0,18.37,0l.19-.2a15.3,15.3,0,0,1,10.64-4.28v2.09a13.21,13.21,0,0,0-9.18,3.7l-.2.2a15.31,15.31,0,0,1-21.28,0l-.19-.2a13.22,13.22,0,0,0-18.37,0l-.2.2A15.31,15.31,0,0,1,260,35.39Z"/><path class="cls-2" d="M260,47.45a15.42,15.42,0,0,1-10.7-4.33l-.2-.2a13.12,13.12,0,0,0-18.24,0l-.2.2a15.39,15.39,0,0,1-21.4,0l-.2-.2a13.12,13.12,0,0,0-18.24,0l-.2.2a15.39,15.39,0,0,1-21.4,0l-.2-.2a13.08,13.08,0,0,0-9.12-3.67V37a15.36,15.36,0,0,1,10.7,4.31l.2.19a13.12,13.12,0,0,0,18.24,0l.2-.19a15.39,15.39,0,0,1,21.4,0l.2.19a13.12,13.12,0,0,0,18.24,0l.2-.19a15.39,15.39,0,0,1,21.4,0l.2.19a13.12,13.12,0,0,0,18.24,0l.2-.19a15.39,15.39,0,0,1,21.4,0l.2.19a13.12,13.12,0,0,0,18.24,0l.2-.19A15.36,15.36,0,0,1,320.08,37v2.28A13.08,13.08,0,0,0,311,42.92l-.2.2a15.39,15.39,0,0,1-21.4,0l-.2-.2a13.12,13.12,0,0,0-18.24,0l-.2.2A15.42,15.42,0,0,1,260,47.45Z"/><path class="cls-2" d="M260,59.5a15.47,15.47,0,0,1-10.76-4.35l-.2-.2a13,13,0,0,0-18.12,0l-.2.2a15.47,15.47,0,0,1-21.52,0L209,55a13,13,0,0,0-18.12,0l-.2.2a15.49,15.49,0,0,1-21.53,0L169,55a13,13,0,0,0-9.05-3.65V48.84a15.43,15.43,0,0,1,10.76,4.34l.2.19a13,13,0,0,0,18.12,0l.2-.19a15.46,15.46,0,0,1,21.52,0l.2.19a13,13,0,0,0,18.12,0l.2-.19a15.46,15.46,0,0,1,21.52,0l.2.19a13,13,0,0,0,18.12,0l.2-.19a15.46,15.46,0,0,1,21.52,0l.2.19a13,13,0,0,0,18.12,0l.2-.19a15.43,15.43,0,0,1,10.76-4.34V51.3A13,13,0,0,0,311,55l-.19.2a15.49,15.49,0,0,1-21.53,0l-.2-.19A13,13,0,0,0,271,55l-.2.2A15.47,15.47,0,0,1,260,59.5Z"/><path class="cls-2" d="M260,71.56a15.58,15.58,0,0,1-10.83-4.38L249,67a12.93,12.93,0,0,0-18,0l-.2.2a15.58,15.58,0,0,1-21.66,0L209,67a12.93,12.93,0,0,0-18,0l-.2.2a15.58,15.58,0,0,1-21.66,0l-.2-.2a12.93,12.93,0,0,0-9-3.62V60.71a15.53,15.53,0,0,1,10.83,4.37l.2.19a12.93,12.93,0,0,0,18,0l.2-.19a15.56,15.56,0,0,1,21.66,0l.2.19a12.93,12.93,0,0,0,18,0l.2-.19a15.56,15.56,0,0,1,21.66,0l.2.19a12.93,12.93,0,0,0,18,0l.2-.19a15.56,15.56,0,0,1,21.66,0l.2.19a12.93,12.93,0,0,0,18,0l.2-.19a15.53,15.53,0,0,1,10.83-4.37v2.65a12.93,12.93,0,0,0-9,3.62l-.2.2a15.58,15.58,0,0,1-21.66,0L289,67a12.92,12.92,0,0,0-18,0l-.2.2A15.58,15.58,0,0,1,260,71.56Z"/><path class="cls-2" d="M260,83.62a15.65,15.65,0,0,1-10.89-4.41l-.2-.19a12.84,12.84,0,0,0-17.86,0l-.2.19a15.65,15.65,0,0,1-21.78,0l-.2-.19A12.84,12.84,0,0,0,191,79l-.2.19a15.65,15.65,0,0,1-21.78,0l-.2-.19a12.81,12.81,0,0,0-8.93-3.6V72.58A15.63,15.63,0,0,1,170.81,77l.2.2a12.86,12.86,0,0,0,17.86,0l.2-.2a15.67,15.67,0,0,1,21.78,0l.2.2a12.86,12.86,0,0,0,17.86,0l.2-.2a15.67,15.67,0,0,1,21.78,0l.2.2a12.86,12.86,0,0,0,17.86,0l.2-.2a15.67,15.67,0,0,1,21.78,0l.2.2a12.86,12.86,0,0,0,17.86,0l.2-.2a15.63,15.63,0,0,1,10.89-4.39v2.84a12.83,12.83,0,0,0-8.93,3.6l-.2.19a15.66,15.66,0,0,1-21.78,0L289,79a12.84,12.84,0,0,0-17.86,0l-.2.19A15.65,15.65,0,0,1,260,83.62Z"/><path class="cls-2" d="M260,95.67a15.8,15.8,0,0,1-11-4.43l-.2-.2a12.73,12.73,0,0,0-17.72,0l-.2.19a15.77,15.77,0,0,1-21.92,0l-.2-.2a12.73,12.73,0,0,0-17.72,0l-.2.19a15.77,15.77,0,0,1-21.92,0l-.2-.2a12.72,12.72,0,0,0-8.86-3.57v-3a15.73,15.73,0,0,1,11,4.41l.2.19a12.72,12.72,0,0,0,17.72,0l.2-.19a15.77,15.77,0,0,1,21.92,0l.2.19a12.72,12.72,0,0,0,17.72,0l.2-.19a15.77,15.77,0,0,1,21.92,0l.2.19a12.72,12.72,0,0,0,17.72,0l.2-.19a15.77,15.77,0,0,1,21.92,0l.2.19a12.72,12.72,0,0,0,17.72,0l.2-.19a15.71,15.71,0,0,1,11-4.41v3a12.69,12.69,0,0,0-8.86,3.58l-.2.19a15.77,15.77,0,0,1-21.92,0l-.2-.19a12.72,12.72,0,0,0-17.72,0l-.2.19A15.79,15.79,0,0,1,260,95.67Z"/><path class="cls-2" d="M260,107.73a15.85,15.85,0,0,1-11-4.46l-.2-.19a12.65,12.65,0,0,0-17.6,0l-.2.19a15.85,15.85,0,0,1-22,0l-.2-.19a12.65,12.65,0,0,0-17.6,0l-.2.19a15.85,15.85,0,0,1-22,0l-.2-.19a12.62,12.62,0,0,0-8.8-3.55v-3.2a15.8,15.8,0,0,1,11,4.44l.2.19a12.65,12.65,0,0,0,17.6,0l.2-.19a15.84,15.84,0,0,1,22,0l.2.19a12.65,12.65,0,0,0,17.6,0l.2-.19a15.84,15.84,0,0,1,22,0l.2.19a12.65,12.65,0,0,0,17.6,0l.2-.19a15.84,15.84,0,0,1,22,0l.2.19a12.65,12.65,0,0,0,17.6,0l.2-.19a15.8,15.8,0,0,1,11-4.44v3.2a12.62,12.62,0,0,0-8.8,3.55l-.2.19a15.84,15.84,0,0,1-22,0l-.2-.19a12.65,12.65,0,0,0-17.6,0l-.2.19A15.85,15.85,0,0,1,260,107.73Z"/><path class="cls-2" d="M260,119.79a15.92,15.92,0,0,1-11.08-4.49l-.2-.19a12.56,12.56,0,0,0-17.48,0l-.2.19a15.93,15.93,0,0,1-22.16,0l-.2-.19a12.56,12.56,0,0,0-17.48,0l-.2.19a15.94,15.94,0,0,1-22.17,0l-.2-.19a12.52,12.52,0,0,0-8.73-3.52V108.2A15.86,15.86,0,0,1,171,112.67l.2.19a12.57,12.57,0,0,0,17.47,0l.2-.19a15.92,15.92,0,0,1,22.17,0l.2.19a12.58,12.58,0,0,0,17.48,0l.2-.19a15.91,15.91,0,0,1,22.16,0l.2.19a12.58,12.58,0,0,0,17.48,0l.2-.19a15.91,15.91,0,0,1,22.16,0l.2.19a12.58,12.58,0,0,0,17.48,0l.2-.19a15.86,15.86,0,0,1,11.08-4.47v3.39a12.52,12.52,0,0,0-8.73,3.52l-.2.19a15.94,15.94,0,0,1-22.17,0l-.2-.19a12.56,12.56,0,0,0-17.48,0l-.2.19A16,16,0,0,1,260,119.79Z"/><path class="cls-2" d="M260,131.84a16,16,0,0,1-11.15-4.51l-.2-.19a12.46,12.46,0,0,0-17.34,0l-.2.19a16,16,0,0,1-22.3,0l-.2-.19a12.46,12.46,0,0,0-17.34,0l-.2.19a16,16,0,0,1-22.3,0l-.2-.19a12.42,12.42,0,0,0-8.67-3.5v-3.57a16,16,0,0,1,11.15,4.49l.2.2a12.48,12.48,0,0,0,17.34,0l.2-.2a16,16,0,0,1,22.3,0l.2.2a12.48,12.48,0,0,0,17.34,0l.2-.2a16,16,0,0,1,22.3,0l.2.2a12.48,12.48,0,0,0,17.34,0l.2-.2a16,16,0,0,1,22.3,0l.2.19a12.47,12.47,0,0,0,17.34,0l.2-.2a16,16,0,0,1,11.15-4.49v3.57a12.42,12.42,0,0,0-8.67,3.5l-.2.19a16,16,0,0,1-22.3,0l-.2-.19a12.46,12.46,0,0,0-17.34,0l-.2.19A16,16,0,0,1,260,131.84Z"/><path class="cls-2" d="M260,143.9a16.1,16.1,0,0,1-11.21-4.54l-.2-.19a12.37,12.37,0,0,0-17.22,0l-.2.19a16.12,16.12,0,0,1-22.42,0l-.2-.19a12.37,12.37,0,0,0-17.22,0l-.2.19a16.12,16.12,0,0,1-22.42,0l-.2-.19a12.37,12.37,0,0,0-8.61-3.47v-3.76a16.11,16.11,0,0,1,11.21,4.52l.2.19a12.37,12.37,0,0,0,17.22,0l.2-.19a16.12,16.12,0,0,1,22.42,0l.2.19a12.37,12.37,0,0,0,17.22,0l.2-.19a16.12,16.12,0,0,1,22.42,0l.2.19a12.37,12.37,0,0,0,17.22,0l.2-.19a16.12,16.12,0,0,1,22.42,0l.2.19a12.37,12.37,0,0,0,17.22,0l.2-.19a16.11,16.11,0,0,1,11.21-4.52v3.76a12.35,12.35,0,0,0-8.61,3.47l-.2.19a16.12,16.12,0,0,1-22.42,0l-.2-.19a12.37,12.37,0,0,0-17.22,0l-.2.19A16.1,16.1,0,0,1,260,143.9Z"/><path class="cls-2" d="M260,156a16.24,16.24,0,0,1-11.28-4.56l-.2-.19a12.28,12.28,0,0,0-17.08,0l-.2.19a16.21,16.21,0,0,1-22.56,0l-.2-.19a12.28,12.28,0,0,0-17.08,0l-.2.19a16.21,16.21,0,0,1-22.56,0l-.2-.19a12.24,12.24,0,0,0-8.54-3.44v-3.95a16.2,16.2,0,0,1,11.28,4.55l.2.19a12.28,12.28,0,0,0,17.08,0l.2-.19a16.21,16.21,0,0,1,22.56,0l.2.19a12.28,12.28,0,0,0,17.08,0l.2-.19a16.21,16.21,0,0,1,22.56,0l.2.19a12.28,12.28,0,0,0,17.08,0l.2-.19a16.21,16.21,0,0,1,22.56,0l.2.19a12.28,12.28,0,0,0,17.08,0l.2-.19a16.2,16.2,0,0,1,11.28-4.55v3.95a12.24,12.24,0,0,0-8.54,3.44l-.2.19a16.21,16.21,0,0,1-22.56,0l-.19-.19a12.29,12.29,0,0,0-17.09,0l-.2.19A16.22,16.22,0,0,1,260,156Z"/><path class="cls-2" d="M260,168a16.31,16.31,0,0,1-11.34-4.59l-.2-.19a12.18,12.18,0,0,0-17,0l-.2.19a16.3,16.3,0,0,1-22.68,0l-.2-.19a12.18,12.18,0,0,0-17,0l-.2.19a16.3,16.3,0,0,1-22.68,0l-.2-.19a12.19,12.19,0,0,0-8.48-3.42v-4.13a16.27,16.27,0,0,1,11.34,4.58l.2.19a12.2,12.2,0,0,0,17,0l.2-.19a16.3,16.3,0,0,1,22.68,0l.2.19a12.2,12.2,0,0,0,17,0l.2-.19a16.3,16.3,0,0,1,22.68,0l.2.19a12.2,12.2,0,0,0,17,0l.2-.19a16.29,16.29,0,0,1,22.68,0l.2.19a12.2,12.2,0,0,0,17,0l.2-.19a16.27,16.27,0,0,1,11.34-4.58v4.13a12.19,12.19,0,0,0-8.48,3.42l-.2.19a16.3,16.3,0,0,1-22.68,0l-.2-.19a12.18,12.18,0,0,0-17,0l-.2.19A16.31,16.31,0,0,1,260,168Z"/><path class="cls-2" d="M260,180.07a16.37,16.37,0,0,1-11.4-4.62l-.2-.19a12.11,12.11,0,0,0-16.84,0l-.2.19a16.41,16.41,0,0,1-22.81,0l-.2-.19a12.1,12.1,0,0,0-16.83,0l-.2.19a16.41,16.41,0,0,1-22.81,0l-.2-.19a12.05,12.05,0,0,0-8.41-3.39v-4.31a16.38,16.38,0,0,1,11.4,4.59l.2.19a12.08,12.08,0,0,0,16.83,0l.2-.19a16.41,16.41,0,0,1,22.81,0l.2.19a12.09,12.09,0,0,0,16.84,0l.2-.19a16.39,16.39,0,0,1,22.8,0l.2.19a12.09,12.09,0,0,0,16.84,0l.2-.19a16.41,16.41,0,0,1,22.81,0l.19.19a12.09,12.09,0,0,0,16.84,0l.19-.19a16.42,16.42,0,0,1,11.41-4.59v4.31a12.05,12.05,0,0,0-8.41,3.39l-.2.19a16.39,16.39,0,0,1-22.81,0l-.2-.19a12.11,12.11,0,0,0-16.84,0l-.2.19A16.37,16.37,0,0,1,260,180.07Z"/><path class="cls-2" d="M260,192.12a16.47,16.47,0,0,1-11.47-4.64l-.2-.19a12,12,0,0,0-16.7,0l-.2.19a16.49,16.49,0,0,1-22.94,0l-.2-.19a12,12,0,0,0-16.7,0l-.2.19a16.49,16.49,0,0,1-22.94,0l-.2-.19a12,12,0,0,0-8.35-3.37v-4.49a16.47,16.47,0,0,1,11.47,4.62l.2.19a12,12,0,0,0,16.7,0l.2-.19a16.49,16.49,0,0,1,22.94,0l.2.19a12,12,0,0,0,16.7,0l.2-.19a16.49,16.49,0,0,1,22.94,0l.2.19a12,12,0,0,0,16.7,0l.2-.19a16.49,16.49,0,0,1,22.94,0l.2.19a12,12,0,0,0,16.7,0l.2-.19a16.47,16.47,0,0,1,11.47-4.62v4.49a12,12,0,0,0-8.35,3.37l-.2.19a16.49,16.49,0,0,1-22.94,0l-.2-.19a12,12,0,0,0-16.7,0l-.2.19A16.47,16.47,0,0,1,260,192.12Z"/><path class="cls-2" d="M260,204.18a16.58,16.58,0,0,1-11.53-4.67l-.2-.19a11.93,11.93,0,0,0-16.58,0l-.2.19a16.56,16.56,0,0,1-23.06,0l-.2-.19a11.93,11.93,0,0,0-16.58,0l-.2.19a16.56,16.56,0,0,1-23.06,0l-.2-.19a11.93,11.93,0,0,0-8.29-3.34V191.3A16.53,16.53,0,0,1,171.45,196l.2.19a11.93,11.93,0,0,0,16.58,0l.2-.19a16.56,16.56,0,0,1,23.06,0l.2.19a11.93,11.93,0,0,0,16.58,0l.2-.19a16.56,16.56,0,0,1,23.06,0l.2.19a11.93,11.93,0,0,0,16.58,0l.2-.19a16.56,16.56,0,0,1,23.06,0l.2.19a11.93,11.93,0,0,0,16.58,0l.2-.19a16.53,16.53,0,0,1,11.53-4.65V196a11.93,11.93,0,0,0-8.29,3.34l-.19.19a16.57,16.57,0,0,1-23.07,0l-.2-.19a11.93,11.93,0,0,0-16.58,0l-.2.19A16.58,16.58,0,0,1,260,204.18Z"/><path class="cls-2" d="M260,216.24a16.69,16.69,0,0,1-11.6-4.7l-.2-.19a11.81,11.81,0,0,0-16.44,0l-.2.19a16.68,16.68,0,0,1-23.2,0l-.2-.19a11.81,11.81,0,0,0-16.44,0l-.2.19a16.68,16.68,0,0,1-23.2,0l-.2-.19a11.78,11.78,0,0,0-8.22-3.31v-4.87a16.69,16.69,0,0,1,11.6,4.67l.2.2a11.83,11.83,0,0,0,16.44,0l.2-.19a16.69,16.69,0,0,1,23.2,0l.2.2a11.83,11.83,0,0,0,16.44,0l.2-.19a16.69,16.69,0,0,1,23.2,0l.2.2a11.83,11.83,0,0,0,16.44,0l.2-.19a16.69,16.69,0,0,1,23.2,0l.2.2a11.83,11.83,0,0,0,16.44,0l.2-.19a16.64,16.64,0,0,1,11.6-4.68V208a11.78,11.78,0,0,0-8.22,3.31l-.2.19a16.68,16.68,0,0,1-23.2,0l-.2-.19a11.81,11.81,0,0,0-16.44,0l-.2.19A16.69,16.69,0,0,1,260,216.24Z"/><path class="cls-2" d="M260,228.29a16.74,16.74,0,0,1-11.66-4.72l-.2-.19a11.74,11.74,0,0,0-16.32,0l-.2.19a16.75,16.75,0,0,1-23.32,0l-.2-.19a11.74,11.74,0,0,0-16.32,0l-.2.19a16.75,16.75,0,0,1-23.32,0l-.2-.19a11.73,11.73,0,0,0-8.16-3.29V215a16.74,16.74,0,0,1,11.66,4.7l.2.19a11.72,11.72,0,0,0,16.32,0l.2-.19a16.77,16.77,0,0,1,23.32,0l.2.19a11.72,11.72,0,0,0,16.32,0l.2-.19a16.77,16.77,0,0,1,23.32,0l.2.19a11.72,11.72,0,0,0,16.32,0l.2-.19a16.77,16.77,0,0,1,23.32,0l.2.19a11.72,11.72,0,0,0,16.32,0l.2-.19a16.74,16.74,0,0,1,11.66-4.7v5.05a11.73,11.73,0,0,0-8.16,3.29l-.2.19a16.75,16.75,0,0,1-23.32,0l-.2-.19a11.74,11.74,0,0,0-16.32,0l-.2.19A16.74,16.74,0,0,1,260,228.29Z"/><path class="cls-2" d="M260,240.35a16.85,16.85,0,0,1-11.73-4.75l-.2-.19a11.62,11.62,0,0,0-16.18,0l-.21.19a16.85,16.85,0,0,1-23.45,0l-.2-.19a11.64,11.64,0,0,0-16.19,0l-.2.19a16.85,16.85,0,0,1-23.45,0l-.2-.19a11.62,11.62,0,0,0-8.09-3.26v-5.24a16.81,16.81,0,0,1,11.72,4.73l.2.19a11.64,11.64,0,0,0,16.19,0l.2-.19a16.85,16.85,0,0,1,23.45,0l.2.19a11.64,11.64,0,0,0,16.19,0l.2-.19a16.86,16.86,0,0,1,23.46,0l.19.19a11.64,11.64,0,0,0,16.19,0l.21-.19a16.85,16.85,0,0,1,23.45,0l.19.19a11.65,11.65,0,0,0,16.2,0l.19-.19a16.85,16.85,0,0,1,11.73-4.73v5.24a11.62,11.62,0,0,0-8.09,3.26l-.2.19a16.85,16.85,0,0,1-23.45,0l-.2-.19a11.64,11.64,0,0,0-16.19,0l-.2.19A16.85,16.85,0,0,1,260,240.35Z"/><path class="cls-2" d="M100-12.84A14.94,14.94,0,0,1,89.64-17l-.2-.19a13.58,13.58,0,0,0-18.88,0l-.2.19A14.92,14.92,0,0,1,49.6-17l-.2-.19a13.58,13.58,0,0,0-18.88,0l-.2.19A14.92,14.92,0,0,1,9.56-17l-.2-.19A13.56,13.56,0,0,0-.08-21v-1.36A14.92,14.92,0,0,1,10.3-18.21l.2.2a13.58,13.58,0,0,0,18.88,0l.2-.2a14.93,14.93,0,0,1,20.76,0l.2.2a13.58,13.58,0,0,0,18.88,0l.2-.2a14.93,14.93,0,0,1,20.76,0l.2.2a13.58,13.58,0,0,0,18.88,0l.2-.2a14.93,14.93,0,0,1,20.76,0l.2.2a13.58,13.58,0,0,0,18.88,0l.2-.2a14.92,14.92,0,0,1,10.38-4.18V-21a13.56,13.56,0,0,0-9.44,3.8l-.2.19a14.92,14.92,0,0,1-20.76,0l-.2-.19a13.58,13.58,0,0,0-18.88,0l-.2.19A14.94,14.94,0,0,1,100-12.84Z"/><path class="cls-2" d="M100-.78A15,15,0,0,1,89.58-5l-.2-.19a13.49,13.49,0,0,0-18.76,0l-.2.19A15,15,0,0,1,49.54-5l-.2-.19a13.49,13.49,0,0,0-18.76,0l-.2.19A15,15,0,0,1,9.5-5L9.29-5.2A13.48,13.48,0,0,0-.08-9v-1.54A15,15,0,0,1,10.36-6.31l.2.2a13.5,13.5,0,0,0,18.76,0l.2-.19a15,15,0,0,1,20.88,0l.2.2a13.5,13.5,0,0,0,18.76,0l.2-.19a15,15,0,0,1,20.88,0l.2.2a13.5,13.5,0,0,0,18.76,0l.2-.19a15,15,0,0,1,20.88,0l.2.19a13.49,13.49,0,0,0,18.76,0l.2-.19a15,15,0,0,1,10.44-4.21V-9A13.52,13.52,0,0,0,150.7-5.2l-.19.19a15,15,0,0,1-20.89,0l-.2-.19a13.49,13.49,0,0,0-18.76,0l-.2.19A15,15,0,0,1,100-.78Z"/><path class="cls-2" d="M100,11.28A15.11,15.11,0,0,1,89.51,7l-.2-.19a13.39,13.39,0,0,0-18.62,0l-.2.19a15.11,15.11,0,0,1-21,0l-.2-.19a13.39,13.39,0,0,0-18.62,0l-.2.19a15.11,15.11,0,0,1-21,0l-.2-.19A13.35,13.35,0,0,0-.08,3.08V1.35A15.1,15.1,0,0,1,10.43,5.59l.2.19a13.37,13.37,0,0,0,18.62,0l.2-.19a15.11,15.11,0,0,1,21,0l.2.19a13.37,13.37,0,0,0,18.62,0l.2-.19a15.11,15.11,0,0,1,21,0l.2.19a13.37,13.37,0,0,0,18.62,0l.2-.19a15.11,15.11,0,0,1,21,0l.2.19a13.37,13.37,0,0,0,18.62,0l.2-.19a15.1,15.1,0,0,1,10.51-4.24V3.08a13.35,13.35,0,0,0-9.31,3.75l-.2.19a15.11,15.11,0,0,1-21,0l-.2-.19a13.39,13.39,0,0,0-18.62,0l-.2.19A15.11,15.11,0,0,1,100,11.28Z"/><path class="cls-2" d="M100,23.33a15.2,15.2,0,0,1-10.57-4.27l-.2-.2a13.3,13.3,0,0,0-18.5,0l-.2.2a15.2,15.2,0,0,1-21.14,0l-.2-.2a13.3,13.3,0,0,0-18.5,0l-.2.2a15.2,15.2,0,0,1-21.14,0l-.2-.2A13.3,13.3,0,0,0-.08,15.14V13.23a15.15,15.15,0,0,1,10.57,4.26l.2.19a13.3,13.3,0,0,0,18.5,0l.2-.19a15.19,15.19,0,0,1,21.14,0l.2.19a13.3,13.3,0,0,0,18.5,0l.2-.19a15.19,15.19,0,0,1,21.14,0l.2.19a13.3,13.3,0,0,0,18.5,0l.2-.19a15.19,15.19,0,0,1,21.14,0l.2.19a13.3,13.3,0,0,0,18.5,0l.2-.19a15.15,15.15,0,0,1,10.57-4.26v1.91a13.29,13.29,0,0,0-9.25,3.72l-.2.19a15.2,15.2,0,0,1-21.14,0l-.2-.2a13.3,13.3,0,0,0-18.5,0l-.2.2A15.2,15.2,0,0,1,100,23.33Z"/><path class="cls-2" d="M100,35.39a15.31,15.31,0,0,1-10.64-4.3l-.2-.2a13.21,13.21,0,0,0-18.36,0l-.2.2a15.3,15.3,0,0,1-21.28,0l-.2-.2a13.21,13.21,0,0,0-18.36,0l-.2.2a15.3,15.3,0,0,1-21.28,0l-.2-.2a13.21,13.21,0,0,0-9.18-3.7V25.1a15.3,15.3,0,0,1,10.64,4.28l.2.2a13.21,13.21,0,0,0,18.36,0l.2-.2a15.32,15.32,0,0,1,21.28,0l.2.2a13.21,13.21,0,0,0,18.36,0l.2-.2a15.32,15.32,0,0,1,21.28,0l.2.2a13.21,13.21,0,0,0,18.36,0l.2-.2a15.32,15.32,0,0,1,21.28,0l.2.2a13.22,13.22,0,0,0,18.37,0l.19-.2a15.3,15.3,0,0,1,10.64-4.28v2.09a13.21,13.21,0,0,0-9.18,3.7l-.2.2a15.31,15.31,0,0,1-21.28,0l-.19-.2a13.22,13.22,0,0,0-18.37,0l-.2.2A15.31,15.31,0,0,1,100,35.39Z"/><path class="cls-2" d="M100,47.45a15.42,15.42,0,0,1-10.7-4.33l-.2-.2a13.12,13.12,0,0,0-18.24,0l-.2.2a15.39,15.39,0,0,1-21.4,0l-.2-.2a13.12,13.12,0,0,0-18.24,0l-.2.2a15.39,15.39,0,0,1-21.4,0l-.2-.2A13.08,13.08,0,0,0-.08,39.25V37a15.36,15.36,0,0,1,10.7,4.31l.2.19a13.12,13.12,0,0,0,18.24,0l.2-.19a15.39,15.39,0,0,1,21.4,0l.2.19a13.12,13.12,0,0,0,18.24,0l.2-.19a15.39,15.39,0,0,1,21.4,0l.2.19a13.12,13.12,0,0,0,18.24,0l.2-.19a15.39,15.39,0,0,1,21.4,0l.2.19a13.12,13.12,0,0,0,18.24,0l.2-.19A15.36,15.36,0,0,1,160.08,37v2.28A13.08,13.08,0,0,0,151,42.92l-.2.2a15.39,15.39,0,0,1-21.4,0l-.2-.2a13.12,13.12,0,0,0-18.24,0l-.2.2A15.42,15.42,0,0,1,100,47.45Z"/><path class="cls-2" d="M100,59.5a15.47,15.47,0,0,1-10.76-4.35l-.2-.2a13,13,0,0,0-18.12,0l-.2.2a15.47,15.47,0,0,1-21.52,0L49,55A13,13,0,0,0,30.9,55l-.2.2a15.49,15.49,0,0,1-21.53,0L9,55a13,13,0,0,0-9-3.65V48.84a15.43,15.43,0,0,1,10.76,4.34l.2.19a13,13,0,0,0,18.12,0l.2-.19a15.46,15.46,0,0,1,21.52,0l.2.19a13,13,0,0,0,18.12,0l.2-.19a15.46,15.46,0,0,1,21.52,0l.2.19a13,13,0,0,0,18.12,0l.2-.19a15.46,15.46,0,0,1,21.52,0l.2.19a13,13,0,0,0,18.12,0l.2-.19a15.43,15.43,0,0,1,10.76-4.34V51.3A13,13,0,0,0,151,55l-.19.2a15.49,15.49,0,0,1-21.53,0l-.2-.19A13,13,0,0,0,111,55l-.2.2A15.47,15.47,0,0,1,100,59.5Z"/><path class="cls-2" d="M100,71.56a15.58,15.58,0,0,1-10.83-4.38L89,67a12.93,12.93,0,0,0-18,0l-.2.2a15.58,15.58,0,0,1-21.66,0L49,67a12.93,12.93,0,0,0-18,0l-.2.2a15.58,15.58,0,0,1-21.66,0l-.2-.2a12.93,12.93,0,0,0-9-3.62V60.71a15.53,15.53,0,0,1,10.83,4.37l.2.19a12.93,12.93,0,0,0,18,0l.2-.19a15.56,15.56,0,0,1,21.66,0l.2.19a12.93,12.93,0,0,0,18,0l.2-.19a15.56,15.56,0,0,1,21.66,0l.2.19a12.93,12.93,0,0,0,18,0l.2-.19a15.56,15.56,0,0,1,21.66,0l.2.19a12.93,12.93,0,0,0,18,0l.2-.19a15.53,15.53,0,0,1,10.83-4.37v2.65a12.93,12.93,0,0,0-9,3.62l-.2.2a15.58,15.58,0,0,1-21.66,0L129,67a12.92,12.92,0,0,0-18,0l-.2.2A15.58,15.58,0,0,1,100,71.56Z"/><path class="cls-2" d="M100,83.62a15.65,15.65,0,0,1-10.89-4.41l-.2-.19a12.84,12.84,0,0,0-17.86,0l-.2.19a15.65,15.65,0,0,1-21.78,0l-.2-.19A12.84,12.84,0,0,0,31,79l-.2.19a15.65,15.65,0,0,1-21.78,0L8.85,79a12.81,12.81,0,0,0-8.93-3.6V72.58A15.63,15.63,0,0,1,10.81,77l.2.2a12.86,12.86,0,0,0,17.86,0l.2-.2a15.67,15.67,0,0,1,21.78,0l.2.2a12.86,12.86,0,0,0,17.86,0l.2-.2a15.67,15.67,0,0,1,21.78,0l.2.2a12.86,12.86,0,0,0,17.86,0l.2-.2a15.67,15.67,0,0,1,21.78,0l.2.2a12.86,12.86,0,0,0,17.86,0l.2-.2a15.63,15.63,0,0,1,10.89-4.39v2.84a12.83,12.83,0,0,0-8.93,3.6l-.2.19a15.66,15.66,0,0,1-21.78,0L129,79a12.84,12.84,0,0,0-17.86,0l-.2.19A15.65,15.65,0,0,1,100,83.62Z"/><path class="cls-2" d="M100,95.67a15.8,15.8,0,0,1-11-4.43l-.2-.2a12.73,12.73,0,0,0-17.72,0l-.2.19a15.77,15.77,0,0,1-21.92,0l-.2-.2a12.73,12.73,0,0,0-17.72,0l-.2.19A15.77,15.77,0,0,1,9,91.24l-.2-.2A12.72,12.72,0,0,0-.08,87.47v-3a15.73,15.73,0,0,1,11,4.41l.2.19a12.72,12.72,0,0,0,17.72,0l.2-.19a15.77,15.77,0,0,1,21.92,0l.2.19a12.72,12.72,0,0,0,17.72,0l.2-.19a15.77,15.77,0,0,1,21.92,0l.2.19a12.72,12.72,0,0,0,17.72,0l.2-.19a15.77,15.77,0,0,1,21.92,0l.2.19a12.72,12.72,0,0,0,17.72,0l.2-.19a15.71,15.71,0,0,1,11-4.41v3a12.69,12.69,0,0,0-8.86,3.58l-.2.19a15.77,15.77,0,0,1-21.92,0l-.2-.19a12.72,12.72,0,0,0-17.72,0l-.2.19A15.79,15.79,0,0,1,100,95.67Z"/><path class="cls-2" d="M100,107.73a15.85,15.85,0,0,1-11-4.46l-.2-.19a12.65,12.65,0,0,0-17.6,0l-.2.19a15.85,15.85,0,0,1-22,0l-.2-.19a12.65,12.65,0,0,0-17.6,0l-.2.19a15.85,15.85,0,0,1-22,0l-.2-.19a12.62,12.62,0,0,0-8.8-3.55v-3.2a15.8,15.8,0,0,1,11,4.44l.2.19a12.65,12.65,0,0,0,17.6,0l.2-.19a15.84,15.84,0,0,1,22,0l.2.19a12.65,12.65,0,0,0,17.6,0l.2-.19a15.84,15.84,0,0,1,22,0l.2.19a12.65,12.65,0,0,0,17.6,0l.2-.19a15.84,15.84,0,0,1,22,0l.2.19a12.65,12.65,0,0,0,17.6,0l.2-.19a15.8,15.8,0,0,1,11-4.44v3.2a12.62,12.62,0,0,0-8.8,3.55l-.2.19a15.84,15.84,0,0,1-22,0l-.2-.19a12.65,12.65,0,0,0-17.6,0l-.2.19A15.85,15.85,0,0,1,100,107.73Z"/><path class="cls-2" d="M100,119.79a15.92,15.92,0,0,1-11.08-4.49l-.2-.19a12.56,12.56,0,0,0-17.48,0l-.2.19a15.93,15.93,0,0,1-22.16,0l-.2-.19a12.56,12.56,0,0,0-17.48,0l-.2.19a15.94,15.94,0,0,1-22.17,0l-.2-.19a12.52,12.52,0,0,0-8.73-3.52V108.2A15.86,15.86,0,0,1,11,112.67l.2.19a12.57,12.57,0,0,0,17.47,0l.2-.19a15.92,15.92,0,0,1,22.17,0l.2.19a12.58,12.58,0,0,0,17.48,0l.2-.19a15.91,15.91,0,0,1,22.16,0l.2.19a12.58,12.58,0,0,0,17.48,0l.2-.19a15.91,15.91,0,0,1,22.16,0l.2.19a12.58,12.58,0,0,0,17.48,0l.2-.19a15.86,15.86,0,0,1,11.08-4.47v3.39a12.52,12.52,0,0,0-8.73,3.52l-.2.19a15.94,15.94,0,0,1-22.17,0l-.2-.19a12.56,12.56,0,0,0-17.48,0l-.2.19A16,16,0,0,1,100,119.79Z"/><path class="cls-2" d="M100,131.84a16,16,0,0,1-11.15-4.51l-.2-.19a12.46,12.46,0,0,0-17.34,0l-.2.19a16,16,0,0,1-22.3,0l-.2-.19a12.46,12.46,0,0,0-17.34,0l-.2.19a16,16,0,0,1-22.3,0l-.2-.19a12.42,12.42,0,0,0-8.67-3.5v-3.57a16,16,0,0,1,11.15,4.49l.2.2a12.48,12.48,0,0,0,17.34,0l.2-.2a16,16,0,0,1,22.3,0l.2.2a12.48,12.48,0,0,0,17.34,0l.2-.2a16,16,0,0,1,22.3,0l.2.2a12.48,12.48,0,0,0,17.34,0l.2-.2a16,16,0,0,1,22.3,0l.2.19a12.47,12.47,0,0,0,17.34,0l.2-.2a16,16,0,0,1,11.15-4.49v3.57a12.42,12.42,0,0,0-8.67,3.5l-.2.19a16,16,0,0,1-22.3,0l-.2-.19a12.46,12.46,0,0,0-17.34,0l-.2.19A16,16,0,0,1,100,131.84Z"/><path class="cls-2" d="M100,143.9a16.1,16.1,0,0,1-11.21-4.54l-.2-.19a12.37,12.37,0,0,0-17.22,0l-.2.19a16.12,16.12,0,0,1-22.42,0l-.2-.19a12.37,12.37,0,0,0-17.22,0l-.2.19a16.12,16.12,0,0,1-22.42,0l-.2-.19A12.37,12.37,0,0,0-.08,135.7v-3.76a16.11,16.11,0,0,1,11.21,4.52l.2.19a12.37,12.37,0,0,0,17.22,0l.2-.19a16.12,16.12,0,0,1,22.42,0l.2.19a12.37,12.37,0,0,0,17.22,0l.2-.19a16.12,16.12,0,0,1,22.42,0l.2.19a12.37,12.37,0,0,0,17.22,0l.2-.19a16.12,16.12,0,0,1,22.42,0l.2.19a12.37,12.37,0,0,0,17.22,0l.2-.19a16.11,16.11,0,0,1,11.21-4.52v3.76a12.35,12.35,0,0,0-8.61,3.47l-.2.19a16.12,16.12,0,0,1-22.42,0l-.2-.19a12.37,12.37,0,0,0-17.22,0l-.2.19A16.1,16.1,0,0,1,100,143.9Z"/><path class="cls-2" d="M100,156a16.24,16.24,0,0,1-11.28-4.56l-.2-.19a12.28,12.28,0,0,0-17.08,0l-.2.19a16.21,16.21,0,0,1-22.56,0l-.2-.19a12.28,12.28,0,0,0-17.08,0l-.2.19a16.21,16.21,0,0,1-22.56,0l-.2-.19a12.24,12.24,0,0,0-8.54-3.44v-3.95a16.2,16.2,0,0,1,11.28,4.55l.2.19a12.28,12.28,0,0,0,17.08,0l.2-.19a16.21,16.21,0,0,1,22.56,0l.2.19a12.28,12.28,0,0,0,17.08,0l.2-.19a16.21,16.21,0,0,1,22.56,0l.2.19a12.28,12.28,0,0,0,17.08,0l.2-.19a16.21,16.21,0,0,1,22.56,0l.2.19a12.28,12.28,0,0,0,17.08,0l.2-.19a16.2,16.2,0,0,1,11.28-4.55v3.95a12.24,12.24,0,0,0-8.54,3.44l-.2.19a16.21,16.21,0,0,1-22.56,0l-.19-.19a12.29,12.29,0,0,0-17.09,0l-.2.19A16.22,16.22,0,0,1,100,156Z"/><path class="cls-2" d="M100,168a16.31,16.31,0,0,1-11.34-4.59l-.2-.19a12.18,12.18,0,0,0-17,0l-.2.19a16.3,16.3,0,0,1-22.68,0l-.2-.19a12.18,12.18,0,0,0-17,0l-.2.19a16.3,16.3,0,0,1-22.68,0l-.2-.19a12.19,12.19,0,0,0-8.48-3.42v-4.13a16.27,16.27,0,0,1,11.34,4.58l.2.19a12.2,12.2,0,0,0,17,0l.2-.19a16.3,16.3,0,0,1,22.68,0l.2.19a12.2,12.2,0,0,0,17,0l.2-.19a16.3,16.3,0,0,1,22.68,0l.2.19a12.2,12.2,0,0,0,17,0l.2-.19a16.29,16.29,0,0,1,22.68,0l.2.19a12.2,12.2,0,0,0,17,0l.2-.19a16.27,16.27,0,0,1,11.34-4.58v4.13a12.19,12.19,0,0,0-8.48,3.42l-.2.19a16.3,16.3,0,0,1-22.68,0l-.2-.19a12.18,12.18,0,0,0-17,0l-.2.19A16.31,16.31,0,0,1,100,168Z"/><path class="cls-2" d="M100,180.07a16.37,16.37,0,0,1-11.4-4.62l-.2-.19a12.11,12.11,0,0,0-16.84,0l-.2.19a16.41,16.41,0,0,1-22.81,0l-.2-.19a12.1,12.1,0,0,0-16.83,0l-.2.19a16.41,16.41,0,0,1-22.81,0l-.2-.19a12.05,12.05,0,0,0-8.41-3.39v-4.31a16.38,16.38,0,0,1,11.4,4.59l.2.19a12.08,12.08,0,0,0,16.83,0l.2-.19a16.41,16.41,0,0,1,22.81,0l.2.19a12.09,12.09,0,0,0,16.84,0l.2-.19a16.39,16.39,0,0,1,22.8,0l.2.19a12.09,12.09,0,0,0,16.84,0l.2-.19a16.41,16.41,0,0,1,22.81,0l.19.19a12.09,12.09,0,0,0,16.84,0l.19-.19a16.42,16.42,0,0,1,11.41-4.59v4.31a12.05,12.05,0,0,0-8.41,3.39l-.2.19a16.39,16.39,0,0,1-22.81,0l-.2-.19a12.11,12.11,0,0,0-16.84,0l-.2.19A16.37,16.37,0,0,1,100,180.07Z"/><path class="cls-2" d="M100,192.12a16.47,16.47,0,0,1-11.47-4.64l-.2-.19a12,12,0,0,0-16.7,0l-.2.19a16.49,16.49,0,0,1-22.94,0l-.2-.19a12,12,0,0,0-16.7,0l-.2.19a16.49,16.49,0,0,1-22.94,0l-.2-.19a12,12,0,0,0-8.35-3.37v-4.49a16.47,16.47,0,0,1,11.47,4.62l.2.19a12,12,0,0,0,16.7,0l.2-.19a16.49,16.49,0,0,1,22.94,0l.2.19a12,12,0,0,0,16.7,0l.2-.19a16.49,16.49,0,0,1,22.94,0l.2.19a12,12,0,0,0,16.7,0l.2-.19a16.49,16.49,0,0,1,22.94,0l.2.19a12,12,0,0,0,16.7,0l.2-.19a16.47,16.47,0,0,1,11.47-4.62v4.49a12,12,0,0,0-8.35,3.37l-.2.19a16.49,16.49,0,0,1-22.94,0l-.2-.19a12,12,0,0,0-16.7,0l-.2.19A16.47,16.47,0,0,1,100,192.12Z"/><path class="cls-2" d="M100,204.18a16.58,16.58,0,0,1-11.53-4.67l-.2-.19a11.93,11.93,0,0,0-16.58,0l-.2.19a16.56,16.56,0,0,1-23.06,0l-.2-.19a11.93,11.93,0,0,0-16.58,0l-.2.19a16.56,16.56,0,0,1-23.06,0l-.2-.19A11.93,11.93,0,0,0-.08,196V191.3A16.53,16.53,0,0,1,11.45,196l.2.19a11.93,11.93,0,0,0,16.58,0l.2-.19a16.56,16.56,0,0,1,23.06,0l.2.19a11.93,11.93,0,0,0,16.58,0l.2-.19a16.56,16.56,0,0,1,23.06,0l.2.19a11.93,11.93,0,0,0,16.58,0l.2-.19a16.56,16.56,0,0,1,23.06,0l.2.19a11.93,11.93,0,0,0,16.58,0l.2-.19a16.53,16.53,0,0,1,11.53-4.65V196a11.93,11.93,0,0,0-8.29,3.34l-.19.19a16.57,16.57,0,0,1-23.07,0l-.2-.19a11.93,11.93,0,0,0-16.58,0l-.2.19A16.58,16.58,0,0,1,100,204.18Z"/><path class="cls-2" d="M100,216.24a16.69,16.69,0,0,1-11.6-4.7l-.2-.19a11.81,11.81,0,0,0-16.44,0l-.2.19a16.68,16.68,0,0,1-23.2,0l-.2-.19a11.81,11.81,0,0,0-16.44,0l-.2.19a16.68,16.68,0,0,1-23.2,0l-.2-.19A11.78,11.78,0,0,0-.08,208v-4.87a16.69,16.69,0,0,1,11.6,4.67l.2.2a11.83,11.83,0,0,0,16.44,0l.2-.19a16.69,16.69,0,0,1,23.2,0l.2.2a11.83,11.83,0,0,0,16.44,0l.2-.19a16.69,16.69,0,0,1,23.2,0l.2.2a11.83,11.83,0,0,0,16.44,0l.2-.19a16.69,16.69,0,0,1,23.2,0l.2.2a11.83,11.83,0,0,0,16.44,0l.2-.19a16.64,16.64,0,0,1,11.6-4.68V208a11.78,11.78,0,0,0-8.22,3.31l-.2.19a16.68,16.68,0,0,1-23.2,0l-.2-.19a11.81,11.81,0,0,0-16.44,0l-.2.19A16.69,16.69,0,0,1,100,216.24Z"/><path class="cls-2" d="M100,228.29a16.74,16.74,0,0,1-11.66-4.72l-.2-.19a11.74,11.74,0,0,0-16.32,0l-.2.19a16.75,16.75,0,0,1-23.32,0l-.2-.19a11.74,11.74,0,0,0-16.32,0l-.2.19a16.75,16.75,0,0,1-23.32,0l-.2-.19a11.73,11.73,0,0,0-8.16-3.29V215a16.74,16.74,0,0,1,11.66,4.7l.2.19a11.72,11.72,0,0,0,16.32,0l.2-.19a16.77,16.77,0,0,1,23.32,0l.2.19a11.72,11.72,0,0,0,16.32,0l.2-.19a16.77,16.77,0,0,1,23.32,0l.2.19a11.72,11.72,0,0,0,16.32,0l.2-.19a16.77,16.77,0,0,1,23.32,0l.2.19a11.72,11.72,0,0,0,16.32,0l.2-.19a16.74,16.74,0,0,1,11.66-4.7v5.05a11.73,11.73,0,0,0-8.16,3.29l-.2.19a16.75,16.75,0,0,1-23.32,0l-.2-.19a11.74,11.74,0,0,0-16.32,0l-.2.19A16.74,16.74,0,0,1,100,228.29Z"/><path class="cls-2" d="M100,240.35a16.85,16.85,0,0,1-11.73-4.75l-.2-.19a11.62,11.62,0,0,0-16.18,0l-.21.19a16.85,16.85,0,0,1-23.45,0l-.2-.19a11.64,11.64,0,0,0-16.19,0l-.2.19a16.85,16.85,0,0,1-23.45,0l-.2-.19a11.62,11.62,0,0,0-8.09-3.26v-5.24a16.81,16.81,0,0,1,11.72,4.73l.2.19a11.64,11.64,0,0,0,16.19,0l.2-.19a16.85,16.85,0,0,1,23.45,0l.2.19a11.64,11.64,0,0,0,16.19,0l.2-.19a16.86,16.86,0,0,1,23.46,0l.19.19a11.64,11.64,0,0,0,16.19,0l.21-.19a16.85,16.85,0,0,1,23.45,0l.19.19a11.65,11.65,0,0,0,16.2,0l.19-.19a16.85,16.85,0,0,1,11.73-4.73v5.24a11.62,11.62,0,0,0-8.09,3.26l-.2.19a16.85,16.85,0,0,1-23.45,0l-.2-.19a11.64,11.64,0,0,0-16.19,0l-.2.19A16.85,16.85,0,0,1,100,240.35Z"/><path class="cls-2" d="M100,252.41a16.93,16.93,0,0,1-11.79-4.78l-.2-.19a11.55,11.55,0,0,0-16.06,0l-.2.19a16.94,16.94,0,0,1-23.58,0l-.2-.19a11.55,11.55,0,0,0-16.06,0l-.2.19a16.94,16.94,0,0,1-23.58,0l-.2-.19a11.55,11.55,0,0,0-8-3.23v-5.42a16.9,16.9,0,0,1,11.79,4.75l.2.19a11.55,11.55,0,0,0,16.06,0l.2-.19a17,17,0,0,1,23.58,0l.2.19a11.55,11.55,0,0,0,16.06,0l.2-.19a17,17,0,0,1,23.58,0l.2.19a11.55,11.55,0,0,0,16.06,0l.2-.19a17,17,0,0,1,23.58,0l.2.19a11.55,11.55,0,0,0,16.06,0l.2-.19a16.9,16.9,0,0,1,11.79-4.75v5.42a11.55,11.55,0,0,0-8,3.23l-.2.19a16.94,16.94,0,0,1-23.58,0l-.2-.19a11.55,11.55,0,0,0-16.06,0l-.2.19A17,17,0,0,1,100,252.41Z"/><path class="cls-2" d="M-60,11.28A15.11,15.11,0,0,1-70.49,7l-.2-.19a13.39,13.39,0,0,0-18.62,0l-.2.19a15.11,15.11,0,0,1-21,0l-.2-.19a13.39,13.39,0,0,0-18.62,0l-.2.19a15.11,15.11,0,0,1-21,0l-.2-.19a13.35,13.35,0,0,0-9.31-3.75V1.35a15.1,15.1,0,0,1,10.51,4.24l.2.19a13.37,13.37,0,0,0,18.62,0l.2-.19a15.11,15.11,0,0,1,21,0l.2.19a13.37,13.37,0,0,0,18.62,0l.2-.19a15.11,15.11,0,0,1,21,0l.2.19a13.37,13.37,0,0,0,18.62,0l.2-.19a15.11,15.11,0,0,1,21,0l.2.19a13.37,13.37,0,0,0,18.62,0l.2-.19A15.1,15.1,0,0,1,.08,1.35V3.08A13.35,13.35,0,0,0-9.23,6.83l-.2.19a15.11,15.11,0,0,1-21,0l-.2-.19a13.39,13.39,0,0,0-18.62,0l-.2.19A15.11,15.11,0,0,1-60,11.28Z"/><path class="cls-2" d="M-60,23.33a15.2,15.2,0,0,1-10.57-4.27l-.2-.2a13.3,13.3,0,0,0-18.5,0l-.2.2a15.2,15.2,0,0,1-21.14,0l-.2-.2a13.3,13.3,0,0,0-18.5,0l-.2.2a15.2,15.2,0,0,1-21.14,0l-.2-.2a13.3,13.3,0,0,0-9.25-3.72V13.23a15.15,15.15,0,0,1,10.57,4.26l.2.19a13.3,13.3,0,0,0,18.5,0l.2-.19a15.19,15.19,0,0,1,21.14,0l.2.19a13.3,13.3,0,0,0,18.5,0l.2-.19a15.19,15.19,0,0,1,21.14,0l.2.19a13.3,13.3,0,0,0,18.5,0l.2-.19a15.19,15.19,0,0,1,21.14,0l.2.19a13.3,13.3,0,0,0,18.5,0l.2-.19A15.15,15.15,0,0,1,.08,13.23v1.91a13.29,13.29,0,0,0-9.25,3.72l-.2.19a15.2,15.2,0,0,1-21.14,0l-.2-.2a13.3,13.3,0,0,0-18.5,0l-.2.2A15.2,15.2,0,0,1-60,23.33Z"/><path class="cls-2" d="M-60,35.39a15.31,15.31,0,0,1-10.64-4.3l-.2-.2a13.21,13.21,0,0,0-18.36,0l-.2.2a15.3,15.3,0,0,1-21.28,0l-.2-.2a13.21,13.21,0,0,0-18.36,0l-.2.2a15.3,15.3,0,0,1-21.28,0l-.2-.2a13.21,13.21,0,0,0-9.18-3.7V25.1a15.3,15.3,0,0,1,10.64,4.28l.2.2a13.21,13.21,0,0,0,18.36,0l.2-.2a15.32,15.32,0,0,1,21.28,0l.2.2a13.21,13.21,0,0,0,18.36,0l.2-.2a15.32,15.32,0,0,1,21.28,0l.2.2a13.21,13.21,0,0,0,18.36,0l.2-.2a15.32,15.32,0,0,1,21.28,0l.2.2a13.22,13.22,0,0,0,18.37,0l.19-.2A15.3,15.3,0,0,1,.08,25.1v2.09a13.21,13.21,0,0,0-9.18,3.7l-.2.2a15.31,15.31,0,0,1-21.28,0l-.19-.2a13.22,13.22,0,0,0-18.37,0l-.2.2A15.31,15.31,0,0,1-60,35.39Z"/><path class="cls-2" d="M-60,47.45a15.42,15.42,0,0,1-10.7-4.33l-.2-.2a13.12,13.12,0,0,0-18.24,0l-.2.2a15.39,15.39,0,0,1-21.4,0l-.2-.2a13.12,13.12,0,0,0-18.24,0l-.2.2a15.39,15.39,0,0,1-21.4,0l-.2-.2a13.08,13.08,0,0,0-9.12-3.67V37a15.36,15.36,0,0,1,10.7,4.31l.2.19a13.12,13.12,0,0,0,18.24,0l.2-.19a15.39,15.39,0,0,1,21.4,0l.2.19a13.12,13.12,0,0,0,18.24,0l.2-.19a15.39,15.39,0,0,1,21.4,0l.2.19a13.12,13.12,0,0,0,18.24,0l.2-.19a15.39,15.39,0,0,1,21.4,0l.2.19a13.12,13.12,0,0,0,18.24,0l.2-.19A15.36,15.36,0,0,1,.08,37v2.28A13.08,13.08,0,0,0-9,42.92l-.2.2a15.39,15.39,0,0,1-21.4,0l-.2-.2a13.12,13.12,0,0,0-18.24,0l-.2.2A15.42,15.42,0,0,1-60,47.45Z"/><path class="cls-2" d="M-60,59.5a15.47,15.47,0,0,1-10.76-4.35l-.2-.2a13,13,0,0,0-18.12,0l-.2.2a15.47,15.47,0,0,1-21.52,0l-.2-.2a13,13,0,0,0-18.12,0l-.2.2a15.49,15.49,0,0,1-21.53,0l-.2-.2a13,13,0,0,0-9.05-3.65V48.84a15.43,15.43,0,0,1,10.76,4.34l.2.19a13,13,0,0,0,18.12,0l.2-.19a15.46,15.46,0,0,1,21.52,0l.2.19a13,13,0,0,0,18.12,0l.2-.19a15.46,15.46,0,0,1,21.52,0l.2.19a13,13,0,0,0,18.12,0l.2-.19a15.46,15.46,0,0,1,21.52,0l.2.19a13,13,0,0,0,18.12,0l.2-.19A15.43,15.43,0,0,1,.08,48.84V51.3A13,13,0,0,0-9,55l-.19.2a15.49,15.49,0,0,1-21.53,0l-.2-.19A13,13,0,0,0-49,55l-.2.2A15.47,15.47,0,0,1-60,59.5Z"/><path class="cls-2" d="M-60,71.56a15.58,15.58,0,0,1-10.83-4.38L-71,67a12.93,12.93,0,0,0-18,0l-.2.2a15.58,15.58,0,0,1-21.66,0l-.2-.2a12.93,12.93,0,0,0-18,0l-.2.2a15.58,15.58,0,0,1-21.66,0l-.2-.2a12.93,12.93,0,0,0-9-3.62V60.71a15.53,15.53,0,0,1,10.83,4.37l.2.19a12.93,12.93,0,0,0,18,0l.2-.19a15.56,15.56,0,0,1,21.66,0l.2.19a12.93,12.93,0,0,0,18,0l.2-.19a15.56,15.56,0,0,1,21.66,0l.2.19a12.93,12.93,0,0,0,18,0l.2-.19a15.56,15.56,0,0,1,21.66,0l.2.19a12.93,12.93,0,0,0,18,0l.2-.19A15.53,15.53,0,0,1,.08,60.71v2.65a12.93,12.93,0,0,0-9,3.62l-.2.2a15.58,15.58,0,0,1-21.66,0L-31,67a12.92,12.92,0,0,0-18,0l-.2.2A15.58,15.58,0,0,1-60,71.56Z"/><path class="cls-2" d="M-60,83.62a15.65,15.65,0,0,1-10.89-4.41l-.2-.19a12.84,12.84,0,0,0-17.86,0l-.2.19a15.65,15.65,0,0,1-21.78,0l-.2-.19A12.84,12.84,0,0,0-129,79l-.2.19a15.65,15.65,0,0,1-21.78,0l-.2-.19a12.81,12.81,0,0,0-8.93-3.6V72.58A15.63,15.63,0,0,1-149.19,77l.2.2a12.86,12.86,0,0,0,17.86,0l.2-.2a15.67,15.67,0,0,1,21.78,0l.2.2a12.86,12.86,0,0,0,17.86,0l.2-.2a15.67,15.67,0,0,1,21.78,0l.2.2a12.86,12.86,0,0,0,17.86,0l.2-.2a15.67,15.67,0,0,1,21.78,0l.2.2a12.86,12.86,0,0,0,17.86,0l.2-.2A15.63,15.63,0,0,1,.08,72.58v2.84A12.83,12.83,0,0,0-8.85,79l-.2.19a15.66,15.66,0,0,1-21.78,0L-31,79a12.84,12.84,0,0,0-17.86,0l-.2.19A15.65,15.65,0,0,1-60,83.62Z"/><path class="cls-2" d="M-60,95.67a15.8,15.8,0,0,1-11-4.43l-.2-.2a12.73,12.73,0,0,0-17.72,0l-.2.19a15.77,15.77,0,0,1-21.92,0l-.2-.2a12.73,12.73,0,0,0-17.72,0l-.2.19a15.77,15.77,0,0,1-21.92,0l-.2-.2a12.72,12.72,0,0,0-8.86-3.57v-3a15.73,15.73,0,0,1,11,4.41l.2.19a12.72,12.72,0,0,0,17.72,0l.2-.19a15.77,15.77,0,0,1,21.92,0l.2.19a12.72,12.72,0,0,0,17.72,0l.2-.19a15.77,15.77,0,0,1,21.92,0l.2.19a12.72,12.72,0,0,0,17.72,0l.2-.19a15.77,15.77,0,0,1,21.92,0l.2.19a12.72,12.72,0,0,0,17.72,0l.2-.19a15.71,15.71,0,0,1,11-4.41v3a12.69,12.69,0,0,0-8.86,3.58l-.2.19a15.77,15.77,0,0,1-21.92,0l-.2-.19a12.72,12.72,0,0,0-17.72,0l-.2.19A15.79,15.79,0,0,1-60,95.67Z"/><path class="cls-2" d="M-60,107.73a15.85,15.85,0,0,1-11-4.46l-.2-.19a12.65,12.65,0,0,0-17.6,0l-.2.19a15.85,15.85,0,0,1-22,0l-.2-.19a12.65,12.65,0,0,0-17.6,0l-.2.19a15.85,15.85,0,0,1-22,0l-.2-.19a12.62,12.62,0,0,0-8.8-3.55v-3.2a15.8,15.8,0,0,1,11,4.44l.2.19a12.65,12.65,0,0,0,17.6,0l.2-.19a15.84,15.84,0,0,1,22,0l.2.19a12.65,12.65,0,0,0,17.6,0l.2-.19a15.84,15.84,0,0,1,22,0l.2.19a12.65,12.65,0,0,0,17.6,0l.2-.19a15.84,15.84,0,0,1,22,0l.2.19a12.65,12.65,0,0,0,17.6,0l.2-.19a15.8,15.8,0,0,1,11-4.44v3.2a12.62,12.62,0,0,0-8.8,3.55l-.2.19a15.84,15.84,0,0,1-22,0l-.2-.19a12.65,12.65,0,0,0-17.6,0l-.2.19A15.85,15.85,0,0,1-60,107.73Z"/><path class="cls-2" d="M-60,119.79a15.92,15.92,0,0,1-11.08-4.49l-.2-.19a12.56,12.56,0,0,0-17.48,0l-.2.19a15.93,15.93,0,0,1-22.16,0l-.2-.19a12.56,12.56,0,0,0-17.48,0l-.2.19a15.94,15.94,0,0,1-22.17,0l-.2-.19a12.52,12.52,0,0,0-8.73-3.52V108.2A15.86,15.86,0,0,1-149,112.67l.2.19a12.57,12.57,0,0,0,17.47,0l.2-.19a15.92,15.92,0,0,1,22.17,0l.2.19a12.58,12.58,0,0,0,17.48,0l.2-.19a15.91,15.91,0,0,1,22.16,0l.2.19a12.58,12.58,0,0,0,17.48,0l.2-.19a15.91,15.91,0,0,1,22.16,0l.2.19a12.58,12.58,0,0,0,17.48,0l.2-.19A15.86,15.86,0,0,1,.08,108.2v3.39a12.52,12.52,0,0,0-8.73,3.52l-.2.19a15.94,15.94,0,0,1-22.17,0l-.2-.19a12.56,12.56,0,0,0-17.48,0l-.2.19A16,16,0,0,1-60,119.79Z"/><path class="cls-2" d="M-60,131.84a16,16,0,0,1-11.15-4.51l-.2-.19a12.46,12.46,0,0,0-17.34,0l-.2.19a16,16,0,0,1-22.3,0l-.2-.19a12.46,12.46,0,0,0-17.34,0l-.2.19a16,16,0,0,1-22.3,0l-.2-.19a12.42,12.42,0,0,0-8.67-3.5v-3.57a16,16,0,0,1,11.15,4.49l.2.2a12.48,12.48,0,0,0,17.34,0l.2-.2a16,16,0,0,1,22.3,0l.2.2a12.48,12.48,0,0,0,17.34,0l.2-.2a16,16,0,0,1,22.3,0l.2.2a12.48,12.48,0,0,0,17.34,0l.2-.2a16,16,0,0,1,22.3,0l.2.19a12.47,12.47,0,0,0,17.34,0l.2-.2A16,16,0,0,1,.08,120.07v3.57a12.42,12.42,0,0,0-8.67,3.5l-.2.19a16,16,0,0,1-22.3,0l-.2-.19a12.46,12.46,0,0,0-17.34,0l-.2.19A16,16,0,0,1-60,131.84Z"/><path class="cls-2" d="M-60,143.9a16.1,16.1,0,0,1-11.21-4.54l-.2-.19a12.37,12.37,0,0,0-17.22,0l-.2.19a16.12,16.12,0,0,1-22.42,0l-.2-.19a12.37,12.37,0,0,0-17.22,0l-.2.19a16.12,16.12,0,0,1-22.42,0l-.2-.19a12.37,12.37,0,0,0-8.61-3.47v-3.76a16.11,16.11,0,0,1,11.21,4.52l.2.19a12.37,12.37,0,0,0,17.22,0l.2-.19a16.12,16.12,0,0,1,22.42,0l.2.19a12.37,12.37,0,0,0,17.22,0l.2-.19a16.12,16.12,0,0,1,22.42,0l.2.19a12.37,12.37,0,0,0,17.22,0l.2-.19a16.12,16.12,0,0,1,22.42,0l.2.19a12.37,12.37,0,0,0,17.22,0l.2-.19A16.11,16.11,0,0,1,.08,131.94v3.76a12.35,12.35,0,0,0-8.61,3.47l-.2.19a16.12,16.12,0,0,1-22.42,0l-.2-.19a12.37,12.37,0,0,0-17.22,0l-.2.19A16.1,16.1,0,0,1-60,143.9Z"/><path class="cls-2" d="M-60,156a16.24,16.24,0,0,1-11.28-4.56l-.2-.19a12.28,12.28,0,0,0-17.08,0l-.2.19a16.21,16.21,0,0,1-22.56,0l-.2-.19a12.28,12.28,0,0,0-17.08,0l-.2.19a16.21,16.21,0,0,1-22.56,0l-.2-.19a12.24,12.24,0,0,0-8.54-3.44v-3.95a16.2,16.2,0,0,1,11.28,4.55l.2.19a12.28,12.28,0,0,0,17.08,0l.2-.19a16.21,16.21,0,0,1,22.56,0l.2.19a12.28,12.28,0,0,0,17.08,0l.2-.19a16.21,16.21,0,0,1,22.56,0l.2.19a12.28,12.28,0,0,0,17.08,0l.2-.19a16.21,16.21,0,0,1,22.56,0l.2.19a12.28,12.28,0,0,0,17.08,0l.2-.19A16.2,16.2,0,0,1,.08,143.81v3.95a12.24,12.24,0,0,0-8.54,3.44l-.2.19a16.21,16.21,0,0,1-22.56,0l-.19-.19a12.29,12.29,0,0,0-17.09,0l-.2.19A16.22,16.22,0,0,1-60,156Z"/><path class="cls-2" d="M-60,168a16.31,16.31,0,0,1-11.34-4.59l-.2-.19a12.18,12.18,0,0,0-17,0l-.2.19a16.3,16.3,0,0,1-22.68,0l-.2-.19a12.18,12.18,0,0,0-17,0l-.2.19a16.3,16.3,0,0,1-22.68,0l-.2-.19a12.19,12.19,0,0,0-8.48-3.42v-4.13a16.27,16.27,0,0,1,11.34,4.58l.2.19a12.2,12.2,0,0,0,17,0l.2-.19a16.3,16.3,0,0,1,22.68,0l.2.19a12.2,12.2,0,0,0,17,0l.2-.19a16.3,16.3,0,0,1,22.68,0l.2.19a12.2,12.2,0,0,0,17,0l.2-.19a16.29,16.29,0,0,1,22.68,0l.2.19a12.2,12.2,0,0,0,17,0l.2-.19A16.27,16.27,0,0,1,.08,155.68v4.13a12.19,12.19,0,0,0-8.48,3.42l-.2.19a16.3,16.3,0,0,1-22.68,0l-.2-.19a12.18,12.18,0,0,0-17,0l-.2.19A16.31,16.31,0,0,1-60,168Z"/><path class="cls-2" d="M-60,180.07a16.37,16.37,0,0,1-11.4-4.62l-.2-.19a12.11,12.11,0,0,0-16.84,0l-.2.19a16.41,16.41,0,0,1-22.81,0l-.2-.19a12.1,12.1,0,0,0-16.83,0l-.2.19a16.41,16.41,0,0,1-22.81,0l-.2-.19a12.05,12.05,0,0,0-8.41-3.39v-4.31a16.38,16.38,0,0,1,11.4,4.59l.2.19a12.08,12.08,0,0,0,16.83,0l.2-.19a16.41,16.41,0,0,1,22.81,0l.2.19a12.09,12.09,0,0,0,16.84,0l.2-.19a16.39,16.39,0,0,1,22.8,0l.2.19a12.09,12.09,0,0,0,16.84,0l.2-.19a16.41,16.41,0,0,1,22.81,0l.19.19a12.09,12.09,0,0,0,16.84,0l.19-.19A16.42,16.42,0,0,1,.08,167.56v4.31a12.05,12.05,0,0,0-8.41,3.39l-.2.19a16.39,16.39,0,0,1-22.81,0l-.2-.19a12.11,12.11,0,0,0-16.84,0l-.2.19A16.37,16.37,0,0,1-60,180.07Z"/><path class="cls-2" d="M-60,192.12a16.47,16.47,0,0,1-11.47-4.64l-.2-.19a12,12,0,0,0-16.7,0l-.2.19a16.49,16.49,0,0,1-22.94,0l-.2-.19a12,12,0,0,0-16.7,0l-.2.19a16.49,16.49,0,0,1-22.94,0l-.2-.19a12,12,0,0,0-8.35-3.37v-4.49a16.47,16.47,0,0,1,11.47,4.62l.2.19a12,12,0,0,0,16.7,0l.2-.19a16.49,16.49,0,0,1,22.94,0l.2.19a12,12,0,0,0,16.7,0l.2-.19a16.49,16.49,0,0,1,22.94,0l.2.19a12,12,0,0,0,16.7,0l.2-.19a16.49,16.49,0,0,1,22.94,0l.2.19a12,12,0,0,0,16.7,0l.2-.19A16.47,16.47,0,0,1,.08,179.43v4.49a12,12,0,0,0-8.35,3.37l-.2.19a16.49,16.49,0,0,1-22.94,0l-.2-.19a12,12,0,0,0-16.7,0l-.2.19A16.47,16.47,0,0,1-60,192.12Z"/><path class="cls-2" d="M-60,204.18a16.58,16.58,0,0,1-11.53-4.67l-.2-.19a11.93,11.93,0,0,0-16.58,0l-.2.19a16.56,16.56,0,0,1-23.06,0l-.2-.19a11.93,11.93,0,0,0-16.58,0l-.2.19a16.56,16.56,0,0,1-23.06,0l-.2-.19a11.93,11.93,0,0,0-8.29-3.34V191.3A16.53,16.53,0,0,1-148.55,196l.2.19a11.93,11.93,0,0,0,16.58,0l.2-.19a16.56,16.56,0,0,1,23.06,0l.2.19a11.93,11.93,0,0,0,16.58,0l.2-.19a16.56,16.56,0,0,1,23.06,0l.2.19a11.93,11.93,0,0,0,16.58,0l.2-.19a16.56,16.56,0,0,1,23.06,0l.2.19a11.93,11.93,0,0,0,16.58,0l.2-.19A16.53,16.53,0,0,1,.08,191.3V196a11.93,11.93,0,0,0-8.29,3.34l-.19.19a16.57,16.57,0,0,1-23.07,0l-.2-.19a11.93,11.93,0,0,0-16.58,0l-.2.19A16.58,16.58,0,0,1-60,204.18Z"/><path class="cls-2" d="M-60,216.24a16.69,16.69,0,0,1-11.6-4.7l-.2-.19a11.81,11.81,0,0,0-16.44,0l-.2.19a16.68,16.68,0,0,1-23.2,0l-.2-.19a11.81,11.81,0,0,0-16.44,0l-.2.19a16.68,16.68,0,0,1-23.2,0l-.2-.19a11.78,11.78,0,0,0-8.22-3.31v-4.87a16.69,16.69,0,0,1,11.6,4.67l.2.2a11.83,11.83,0,0,0,16.44,0l.2-.19a16.69,16.69,0,0,1,23.2,0l.2.2a11.83,11.83,0,0,0,16.44,0l.2-.19a16.69,16.69,0,0,1,23.2,0l.2.2a11.83,11.83,0,0,0,16.44,0l.2-.19a16.69,16.69,0,0,1,23.2,0l.2.2a11.83,11.83,0,0,0,16.44,0l.2-.19a16.64,16.64,0,0,1,11.6-4.68V208a11.78,11.78,0,0,0-8.22,3.31l-.2.19a16.68,16.68,0,0,1-23.2,0l-.2-.19a11.81,11.81,0,0,0-16.44,0l-.2.19A16.69,16.69,0,0,1-60,216.24Z"/><path class="cls-2" d="M-60,228.29a16.74,16.74,0,0,1-11.66-4.72l-.2-.19a11.74,11.74,0,0,0-16.32,0l-.2.19a16.75,16.75,0,0,1-23.32,0l-.2-.19a11.74,11.74,0,0,0-16.32,0l-.2.19a16.75,16.75,0,0,1-23.32,0l-.2-.19a11.73,11.73,0,0,0-8.16-3.29V215a16.74,16.74,0,0,1,11.66,4.7l.2.19a11.72,11.72,0,0,0,16.32,0l.2-.19a16.77,16.77,0,0,1,23.32,0l.2.19a11.72,11.72,0,0,0,16.32,0l.2-.19a16.77,16.77,0,0,1,23.32,0l.2.19a11.72,11.72,0,0,0,16.32,0l.2-.19a16.77,16.77,0,0,1,23.32,0l.2.19a11.72,11.72,0,0,0,16.32,0l.2-.19A16.74,16.74,0,0,1,.08,215v5.05a11.73,11.73,0,0,0-8.16,3.29l-.2.19a16.75,16.75,0,0,1-23.32,0l-.2-.19a11.74,11.74,0,0,0-16.32,0l-.2.19A16.74,16.74,0,0,1-60,228.29Z"/><path class="cls-2" d="M-60,240.35a16.85,16.85,0,0,1-11.73-4.75l-.2-.19a11.62,11.62,0,0,0-16.18,0l-.21.19a16.85,16.85,0,0,1-23.45,0l-.2-.19a11.64,11.64,0,0,0-16.19,0l-.2.19a16.85,16.85,0,0,1-23.45,0l-.2-.19a11.62,11.62,0,0,0-8.09-3.26v-5.24a16.81,16.81,0,0,1,11.72,4.73l.2.19a11.64,11.64,0,0,0,16.19,0l.2-.19a16.85,16.85,0,0,1,23.45,0l.2.19a11.64,11.64,0,0,0,16.19,0l.2-.19a16.86,16.86,0,0,1,23.46,0l.19.19a11.64,11.64,0,0,0,16.19,0l.21-.19a16.85,16.85,0,0,1,23.45,0l.19.19a11.65,11.65,0,0,0,16.2,0l.19-.19A16.85,16.85,0,0,1,.08,226.91v5.24A11.62,11.62,0,0,0-8,235.41l-.2.19a16.85,16.85,0,0,1-23.45,0l-.2-.19a11.64,11.64,0,0,0-16.19,0l-.2.19A16.85,16.85,0,0,1-60,240.35Z"/><path class="cls-2" d="M260,10.35A16.85,16.85,0,0,1,248.29,5.6l-.2-.19a11.62,11.62,0,0,0-16.18,0l-.21.19a16.85,16.85,0,0,1-23.45,0l-.2-.19a11.64,11.64,0,0,0-16.19,0l-.2.19a16.85,16.85,0,0,1-23.45,0l-.2-.19a11.62,11.62,0,0,0-8.09-3.26V-3.09a16.81,16.81,0,0,1,11.72,4.73l.2.19a11.64,11.64,0,0,0,16.19,0l.2-.19a16.85,16.85,0,0,1,23.45,0l.2.19a11.64,11.64,0,0,0,16.19,0l.2-.19a16.86,16.86,0,0,1,23.46,0l.19.19a11.64,11.64,0,0,0,16.19,0l.21-.19a16.85,16.85,0,0,1,23.45,0l.19.19a11.65,11.65,0,0,0,16.2,0l.19-.19a16.85,16.85,0,0,1,11.73-4.73V2.15A11.62,11.62,0,0,0,312,5.41l-.2.19a16.85,16.85,0,0,1-23.45,0l-.2-.19a11.64,11.64,0,0,0-16.19,0l-.2.19A16.85,16.85,0,0,1,260,10.35Z"/><path class="cls-2" d="M260,22.41a16.93,16.93,0,0,1-11.79-4.78l-.2-.19a11.55,11.55,0,0,0-16.06,0l-.2.19a16.94,16.94,0,0,1-23.58,0l-.2-.19a11.55,11.55,0,0,0-16.06,0l-.2.19a16.94,16.94,0,0,1-23.58,0l-.2-.19a11.55,11.55,0,0,0-8-3.23V8.79a16.9,16.9,0,0,1,11.79,4.75l.2.19a11.55,11.55,0,0,0,16.06,0l.2-.19a17,17,0,0,1,23.58,0l.2.19a11.55,11.55,0,0,0,16.06,0l.2-.19a17,17,0,0,1,23.58,0l.2.19a11.55,11.55,0,0,0,16.06,0l.2-.19a17,17,0,0,1,23.58,0l.2.19a11.55,11.55,0,0,0,16.06,0l.2-.19a16.9,16.9,0,0,1,11.79-4.75v5.42a11.55,11.55,0,0,0-8,3.23l-.2.19a16.94,16.94,0,0,1-23.58,0l-.2-.19a11.55,11.55,0,0,0-16.06,0l-.2.19A17,17,0,0,1,260,22.41Z"/><path class="cls-2" d="M100,10.35A16.85,16.85,0,0,1,88.29,5.6l-.2-.19a11.62,11.62,0,0,0-16.18,0l-.21.19a16.85,16.85,0,0,1-23.45,0l-.2-.19a11.64,11.64,0,0,0-16.19,0l-.2.19a16.85,16.85,0,0,1-23.45,0L8,5.41A11.62,11.62,0,0,0-.08,2.15V-3.09A16.81,16.81,0,0,1,11.64,1.64l.2.19A11.64,11.64,0,0,0,28,1.83l.2-.19a16.85,16.85,0,0,1,23.45,0l.2.19a11.64,11.64,0,0,0,16.19,0l.2-.19a16.86,16.86,0,0,1,23.46,0l.19.19a11.64,11.64,0,0,0,16.19,0l.21-.19a16.85,16.85,0,0,1,23.45,0l.19.19a11.65,11.65,0,0,0,16.2,0l.19-.19a16.85,16.85,0,0,1,11.73-4.73V2.15A11.62,11.62,0,0,0,152,5.41l-.2.19a16.85,16.85,0,0,1-23.45,0l-.2-.19a11.64,11.64,0,0,0-16.19,0l-.2.19A16.85,16.85,0,0,1,100,10.35Z"/><path class="cls-2" d="M100,22.41a16.93,16.93,0,0,1-11.79-4.78l-.2-.19a11.55,11.55,0,0,0-16.06,0l-.2.19a16.94,16.94,0,0,1-23.58,0l-.2-.19a11.55,11.55,0,0,0-16.06,0l-.2.19a16.94,16.94,0,0,1-23.58,0L8,17.44a11.55,11.55,0,0,0-8-3.23V8.79a16.9,16.9,0,0,1,11.79,4.75l.2.19a11.55,11.55,0,0,0,16.06,0l.2-.19a17,17,0,0,1,23.58,0l.2.19a11.55,11.55,0,0,0,16.06,0l.2-.19a17,17,0,0,1,23.58,0l.2.19a11.55,11.55,0,0,0,16.06,0l.2-.19a17,17,0,0,1,23.58,0l.2.19a11.55,11.55,0,0,0,16.06,0l.2-.19a16.9,16.9,0,0,1,11.79-4.75v5.42a11.55,11.55,0,0,0-8,3.23l-.2.19a16.94,16.94,0,0,1-23.58,0l-.2-.19a11.55,11.55,0,0,0-16.06,0l-.2.19A17,17,0,0,1,100,22.41Z"/><path class="cls-2" d="M-60,10.35A16.85,16.85,0,0,1-71.71,5.6l-.2-.19a11.62,11.62,0,0,0-16.18,0l-.21.19a16.85,16.85,0,0,1-23.45,0l-.2-.19a11.64,11.64,0,0,0-16.19,0l-.2.19a16.85,16.85,0,0,1-23.45,0l-.2-.19a11.62,11.62,0,0,0-8.09-3.26V-3.09a16.81,16.81,0,0,1,11.72,4.73l.2.19a11.64,11.64,0,0,0,16.19,0l.2-.19a16.85,16.85,0,0,1,23.45,0l.2.19a11.64,11.64,0,0,0,16.19,0l.2-.19a16.86,16.86,0,0,1,23.46,0l.19.19a11.64,11.64,0,0,0,16.19,0l.21-.19a16.85,16.85,0,0,1,23.45,0l.19.19a11.65,11.65,0,0,0,16.2,0l.19-.19A16.85,16.85,0,0,1,.08-3.09V2.15A11.62,11.62,0,0,0-8,5.41l-.2.19a16.85,16.85,0,0,1-23.45,0l-.2-.19A11.64,11.64,0,0,0-48,5.41l-.2.19A16.85,16.85,0,0,1-60,10.35Z"/><path class="cls-2" d="M-60,22.41a16.93,16.93,0,0,1-11.79-4.78l-.2-.19a11.55,11.55,0,0,0-16.06,0l-.2.19a16.94,16.94,0,0,1-23.58,0l-.2-.19a11.55,11.55,0,0,0-16.06,0l-.2.19a16.94,16.94,0,0,1-23.58,0l-.2-.19a11.55,11.55,0,0,0-8-3.23V8.79a16.9,16.9,0,0,1,11.79,4.75l.2.19a11.55,11.55,0,0,0,16.06,0l.2-.19a17,17,0,0,1,23.58,0l.2.19a11.55,11.55,0,0,0,16.06,0l.2-.19a17,17,0,0,1,23.58,0l.2.19a11.55,11.55,0,0,0,16.06,0l.2-.19a17,17,0,0,1,23.58,0l.2.19a11.55,11.55,0,0,0,16.06,0l.2-.19A16.9,16.9,0,0,1,.08,8.79v5.42a11.55,11.55,0,0,0-8,3.23l-.2.19a16.94,16.94,0,0,1-23.58,0l-.2-.19a11.55,11.55,0,0,0-16.06,0l-.2.19A17,17,0,0,1-60,22.41Z"/></pattern></defs><g id="Layer_2" data-name="Layer 2"><g id="page_1_copy_2" data-name="page 1 copy 2"><rect class="cls-3" width="1366" height="3811"/></g></g></svg>