<svg xmlns="http://www.w3.org/2000/svg" xmlns:xlink="http://www.w3.org/1999/xlink" viewBox="0 0 1374.09 723.52"><defs><style>.cls-1{opacity:0.81;}.cls-2{fill:url(#linear-gradient);}.cls-3{fill:url(#linear-gradient-2);}.cls-4{fill:url(#linear-gradient-3);}</style><linearGradient id="linear-gradient" y1="365.82" x2="1373.37" y2="365.82" gradientUnits="userSpaceOnUse"><stop offset="0" stop-color="#024080"/><stop offset="0" stop-color="#024181"/><stop offset="0.17" stop-color="#015b89"/><stop offset="0.47" stop-color="#00909a"/><stop offset="0.55" stop-color="#159899"/><stop offset="0.74" stop-color="#4cac98"/><stop offset="1" stop-color="#a4cd96"/><stop offset="1" stop-color="#a5cd96"/></linearGradient><linearGradient id="linear-gradient-2" x1="179.19" y1="367.53" x2="1373.75" y2="367.53" gradientUnits="userSpaceOnUse"><stop offset="0" stop-color="#024080"/><stop offset="0" stop-color="#024181"/><stop offset="0.17" stop-color="#015b89"/><stop offset="0.47" stop-color="#00909a"/><stop offset="0.55" stop-color="#15988d"/><stop offset="0.74" stop-color="#4cac6d"/><stop offset="1" stop-color="#a4cd3a"/><stop offset="1" stop-color="#a5cd39"/></linearGradient><linearGradient id="linear-gradient-3" x1="615.48" y1="360.18" x2="1374.09" y2="360.18" xlink:href="#linear-gradient-2"/></defs><g id="Layer_2" data-name="Layer 2"><g id="page_1_copy_2" data-name="page 1 copy 2"><g class="cls-1"><path class="cls-2" d="M1369.14,8.14c-.06-.09-.29.25-.39.28-78.08,27.21-122.74,79.72-140.27,140-12.72,43.8-46.53,77.07-95,98.46-16.88,7.46-32,9.85-47.32,13.45-41.86,9.84-81.1,14.14-125.58,29.72-67.59,23.67-112.7,73.22-125,134.29-5.08,25.34-14-35.68-16.14-12s-6.23-5.61-14,21c-10.06,34.44-52.59,36.11-71,72-20,39-94,93-132,121-54.72,40.32-242.81,2.59-305,4C166.85,633.39,53,707.55.12,718.12c-.17,0-.15.29,0,.28,35.32-.32,336.2.3,362,.94,41.3,1,82.65.61,124,1.38q41,.76,81.95,1.61h0a15.88,15.88,0,0,1,4.54-.71c30.14,0,60.28-1.09,90.42-1.07,106.44.05,595.14,6.74,701.7-.13.07,0,0,.07,0,0,6.62-37.78-213-58-249-73-35.42-14.76-20.38-84.87-31-122-9.73-34-16-86.66,46-136,54.27-43.17,24.8-72.27,64.78-84,50.66-14.86,46.29-47.59,66.1-99.84,7.56-20,10-37.65,14.94-56.49,12.35-46.71,42.85-83.67,91.09-109.09,0,0,.06-.07.08-.12C1373.13,29.65,1376.48,19.27,1369.14,8.14Z"/><path class="cls-3" d="M1373.75,12.64a.15.15,0,0,0-.2-.14C1300.17,42.14,1255.36,94.66,1235,153c-14.84,42.59-48.41,76-94.65,98.66-16.12,7.9-30.25,10.86-44.65,15-39.35,11.29-75.9,17.15-118.09,34.06C913.55,326.39,868.4,375.92,852.78,435c-6.47,24.53-5.59,44.48-9.26,67.32s-5.18,44.55-14.23,70.42c-11.72,33.48-40.27,31.13-75.76,47.64-33.35,15.52-80.24,20-106,23-63,7.27-118.9,20.78-176,20-44.06-.6-229.45,49.48-292.21,54.73a.15.15,0,0,0,0,.29c35.44.13,155.42.47,183.88.89,65.69,1,131.37,2.44,197,3.07,25.15.24,50.28.19,75.42,0h0a15.71,15.71,0,0,1,4.86-.8c26.46,0,52.93-.48,79.39-1.19,46.73-1.25,93.44-3.2,140.18-4.34,23.49-.58,47-1,70.49-.94,11.86,0,23.7.58,35.54,1.11a.16.16,0,0,0,.15-.11c10.4-38.66,12-72.31,12.52-104.42.6-36.64-7.1-67-6.11-104,.83-30.73,1.53-65.22,49.59-117.8,46.78-51.2,86.1-60.43,123.85-73.45,47.84-16.5,93.46-59.21,115.43-110.21,8.39-19.47,11.86-36.55,17.78-54.84C1294.35,105.33,1326,68,1373.68,41.42c0,0,.07.06.07,0Z"/><path class="cls-4" d="M1368.75,8.42c0-.11,5.38-8.48,5.28-8.42C1310.85,37.48,1263.79,90.87,1234,145.61c-21.71,39.82-55.34,74.44-95.92,101.56-14.15,9.45-25.58,14.25-37.49,20.11-32.58,16-61.69,26.84-97.79,48.26-54.84,32.55-101.2,83.17-127.56,137.68C864.26,475.84,860,493.28,851.64,514S836.76,554,823.55,578.23c-17.1,31.32-46.45,63.06-77.38,83.09-29.07,18.82-58.34,36.22-78.57,42.82q-26.54,8.65-52,15.93a.14.14,0,0,0,0,.28l39.14-1.14c72.57-2.11,145.18-2.83,217.78-3a.17.17,0,0,0,.12-.07,251.74,251.74,0,0,0,19.2-32.4c17.51-35.86,27-65.86,35.35-94.35,9.46-32.38,11.1-58,20.93-90.66,8.18-27.21,17.19-57.71,66.5-111.47,48-52.35,80.05-66.56,111.84-83.87,40.27-21.93,85.31-66.61,114.49-114.95,11.14-18.46,18-34,26.94-51.08,23.89-45.3,59.76-85.29,105.83-117,0,0-6,20,0,0C1375.74,13.82,1368.33,15.31,1368.75,8.42Z"/></g></g></g></svg>