<svg xmlns="http://www.w3.org/2000/svg" width="61" height="61" viewBox="0 0 61 61">
  <g id="Group_156" data-name="Group 156" transform="translate(-852 -480.5)">
    <path id="Stroke_5" data-name="Stroke 5" d="M43.6,60H16.4A16.4,16.4,0,0,1,0,43.6V16.4A16.4,16.4,0,0,1,16.4,0H43.6A16.4,16.4,0,0,1,60,16.4V43.6A16.4,16.4,0,0,1,43.6,60Z" transform="translate(852.5 481)" fill="#1e3664" stroke="#1e3664" stroke-miterlimit="10" stroke-width="1"/>
    <g id="Group_18" data-name="Group 18" transform="translate(-1.767 -6.976)">
      <g id="Group_16" data-name="Group 16">
        <path id="Fill_47" data-name="Fill 47" d="M30.274,8.981a5.886,5.886,0,0,1-10.224,4,8.162,8.162,0,0,1-12.483.869,4.744,4.744,0,0,1-2.944,1.038,4.629,4.629,0,0,1,0-9.259,4.029,4.029,0,0,1,1.014.121A8.174,8.174,0,0,1,20.69,4.394a5.878,5.878,0,0,1,9.584,4.587" transform="translate(865.767 507.476)" fill="#fff"/>
        <path id="Stroke_49" data-name="Stroke 49" d="M30.274,8.981a5.886,5.886,0,0,1-10.224,4,8.162,8.162,0,0,1-12.483.869,4.744,4.744,0,0,1-2.944,1.038,4.629,4.629,0,0,1,0-9.259,4.029,4.029,0,0,1,1.014.121A8.174,8.174,0,0,1,20.69,4.394a5.878,5.878,0,0,1,9.584,4.587Z" transform="translate(865.767 507.476)" fill="none" stroke="#1e3664" stroke-miterlimit="10" stroke-width="1"/>
      </g>
    </g>
    <g id="Group_19" data-name="Group 19" transform="translate(10.253 -0.346)">
      <g id="Group_16-2" data-name="Group 16" transform="translate(865.767 507.476)">
        <path id="Fill_47-2" data-name="Fill 47" d="M24.236,7.19a4.712,4.712,0,0,1-8.185,3.2,6.534,6.534,0,0,1-9.993.7,3.8,3.8,0,0,1-2.357.831A3.706,3.706,0,0,1,3.7,4.5a3.225,3.225,0,0,1,.812.1,6.544,6.544,0,0,1,12.05-1.082A4.706,4.706,0,0,1,24.236,7.19" fill="#fff"/>
        <path id="Stroke_49-2" data-name="Stroke 49" d="M24.236,7.19a4.712,4.712,0,0,1-8.185,3.2,6.534,6.534,0,0,1-9.993.7,3.8,3.8,0,0,1-2.357.831A3.706,3.706,0,0,1,3.7,4.5a3.225,3.225,0,0,1,.812.1,6.544,6.544,0,0,1,12.05-1.082A4.706,4.706,0,0,1,24.236,7.19Z" fill="none" stroke="#1e3664" stroke-miterlimit="10" stroke-width="1"/>
      </g>
    </g>
  </g>
</svg>
