<svg xmlns="http://www.w3.org/2000/svg" xmlns:xlink="http://www.w3.org/1999/xlink" width="18" height="18" viewBox="0 0 18 18">
  <defs>
    <clipPath id="clip-path">
      <rect id="Rectangle_777" data-name="Rectangle 777" width="18" height="18" transform="translate(983.955 802.954)" fill="#bfbfbf" stroke="#707070" stroke-width="1"/>
    </clipPath>
  </defs>
  <g id="Group_4724" data-name="Group 4724" transform="translate(-726 -289)">
    <g id="Mask_Group_67" data-name="Mask Group 67" transform="translate(-257.955 -513.954)" clip-path="url(#clip-path)">
      <g id="eye" transform="translate(984.752 806.91)">
        <path id="Path_4897" data-name="Path 4897" d="M7.819,3.231a9.755,9.755,0,0,0-7.7,4.29.619.619,0,0,0,0,.739,9.75,9.75,0,0,0,7.7,4.293,9.755,9.755,0,0,0,7.7-4.29.619.619,0,0,0,0-.739A9.75,9.75,0,0,0,7.819,3.231Zm.214,7.943A3.289,3.289,0,1,1,11.1,8.106,3.291,3.291,0,0,1,8.033,11.174Zm-.1-1.516A1.771,1.771,0,1,1,9.588,8,1.768,1.768,0,0,1,7.934,9.658Z" transform="translate(0 -3.231)" fill="#bfbfbf"/>
      </g>
    </g>
    <g id="Rectangle_2213" data-name="Rectangle 2213" transform="translate(726.782 291.404) rotate(-45)" fill="#bfbfbf" stroke="#fff" stroke-width="0.5">
      <rect width="2.5" height="20" rx="1.25" stroke="none"/>
      <rect x="0.25" y="0.25" width="2" height="19.5" rx="1" fill="none"/>
    </g>
  </g>
</svg>
