<svg id="Alkalinity" xmlns="http://www.w3.org/2000/svg" xmlns:xlink="http://www.w3.org/1999/xlink" width="40" height="40" viewBox="0 0 40 40">
  <defs>
    <clipPath id="clip-path">
      <path id="Clip_2" data-name="Clip 2" d="M0,0H25.833V19.167H0Z" transform="translate(0 0)" fill="none"/>
    </clipPath>
  </defs>
  <rect id="Rectangle" width="40" height="40" rx="4" fill="#fff"/>
  <g id="Group_10" data-name="Group 10" transform="translate(7 10)">
    <g id="Group_3" data-name="Group 3" transform="translate(0 0.53)">
      <path id="Clip_2-2" data-name="Clip 2" d="M0,0H25.833V19.167H0Z" transform="translate(0 0)" fill="none"/>
      <g id="Group_3-2" data-name="Group 3" clip-path="url(#clip-path)">
        <path id="Fill_1" data-name="Fill 1" d="M9.149,19.166a.536.536,0,0,1-.538-.532,5.61,5.61,0,0,1,.559-2.889,21.332,21.332,0,0,1-4.1-2.092A5.7,5.7,0,0,1,.538,15.972.536.536,0,0,1,0,15.44,9.156,9.156,0,0,1,.634,11.88a5.217,5.217,0,0,1,1.179-1.764A5.224,5.224,0,0,1,.634,8.352,9.159,9.159,0,0,1,0,4.792.536.536,0,0,1,.538,4.26,5.7,5.7,0,0,1,5.075,6.579,18.437,18.437,0,0,1,7.962,5,42.927,42.927,0,0,0,6.494.724.528.528,0,0,1,6.568.211.539.539,0,0,1,6.995,0l.054,0c.277.027,6.8.679,8.882,3.282A12.432,12.432,0,0,1,21.6,5.3a13.165,13.165,0,0,1,4.17,4.553.523.523,0,0,1,0,.518,12.66,12.66,0,0,1-10.974,6.646C12.964,19.142,9.3,19.166,9.149,19.166Zm1.065-3.032c-.1.082-.442.462-.514,1.937a7.927,7.927,0,0,0,3.59-1.138,17.506,17.506,0,0,1-3.076-.8Zm-5.307-3.84a.542.542,0,0,1,.384.16c.953.964,6.1,3.518,9.24,3.518a11.592,11.592,0,0,0,10.144-5.856A11.591,11.591,0,0,0,14.531,4.26c-3.145,0-8.287,2.554-9.24,3.518a.54.54,0,0,1-.384.16.55.55,0,0,1-.1-.009.536.536,0,0,1-.4-.312A3.962,3.962,0,0,0,1.091,5.374c.169,3.35,1.778,4.233,1.847,4.269a.539.539,0,0,1,.288.479.528.528,0,0,1-.289.468c-.068.036-1.677.922-1.846,4.271a3.943,3.943,0,0,0,3.322-2.245.533.533,0,0,1,.4-.312A.516.516,0,0,1,4.907,12.294ZM7.816,1.169c.393,1.042.911,2.479,1.145,3.4A16.992,16.992,0,0,1,14.271,3.2C12.349,1.9,8.844,1.316,7.816,1.169Z" transform="translate(0 0)" fill="#073173"/>
      </g>
    </g>
    <path id="Fill_4" data-name="Fill 4" d="M1.25,5A7.475,7.475,0,0,1,2.4.861.52.52,0,0,0,2.219.092a.675.675,0,0,0-.864.155A8.347,8.347,0,0,0,0,5,8.347,8.347,0,0,0,1.355,9.753.649.649,0,0,0,1.875,10a.681.681,0,0,0,.346-.093.519.519,0,0,0,.173-.77A7.377,7.377,0,0,1,1.25,5" transform="translate(15 5.53)" fill="#073173"/>
    <path id="Fill_8" data-name="Fill 8" d="M1.25,0A1.25,1.25,0,1,1,0,1.25,1.25,1.25,0,0,1,1.25,0" transform="translate(18.333 7.197)" fill="#073173"/>
  </g>
</svg>
