<svg xmlns="http://www.w3.org/2000/svg" viewBox="0 0 93.17 72.21"><defs><style>.cls-1{fill:#bdccd4;stroke:#b6d2dc;stroke-miterlimit:10;}</style></defs><g id="Layer_2" data-name="Layer 2"><g id="page_1_copy" data-name="page 1 copy"><path class="cls-1" d="M.5,57.25c1.17-1.86,2.27-2.38,3.52-1.1,2.23,2.28,4.47,1.06,6.8.67-.74-2.64-2.38-4-4.8-4.1-1.28,0-2.13-.66-2.06-2,.08-1.55.8-3,2.44-3C7.33,47.74,9,49,9,49.59c-.21,3.36,2.41,3.65,4.5,4.9.48-1.56.76-2.67-.58-3.86a3.06,3.06,0,0,1-.34-2.8A2.5,2.5,0,0,1,15,47.16a3.22,3.22,0,0,1,1.11,2.64c-.86,4.11,2.3,9.67,6.64,10.78-.78-1.61-1.53-3-2.14-4.43C19.64,54,18.73,51.75,18,49.5c-.65-2,0-2.73,1.94-2.06,3.9,1.39,7.73,3,11.58,4.53a7.9,7.9,0,0,0,1.7.59c-4.91-5.17-5.83-10.71-1.63-16.81L31,35.41c-1.55.7-3.13,1.32-4.64,2.1-4.91,2.54-5,2.59-7.36-2.37a38.06,38.06,0,0,0-8.27-11.59c-1.94-1.8-3.85-3.89-7.1-3.12-.55.13-2-1.19-2.06-1.95s.81-1.92,1.29-2.89c.76.53,1.83.89,2.24,1.61,1.15,2.05,1.91,2.5,5.06,2.27a5.71,5.71,0,0,0-2.31-6.15c-1.27-.78-2-1.79-1.22-3.2s2.23-1.49,3.61-1.06c1.55.48,1.76,1.75,1.45,3.15-.18.79-.85,1.75-.59,2.32A44.94,44.94,0,0,0,14,19.47c1.73-1.27,2.43-2.3,1.44-4-.64-1.14-1.05-2.69.43-3.39a3.13,3.13,0,0,1,2.83.67,2.58,2.58,0,0,1,0,3.86A5,5,0,0,0,17,20.94a5.28,5.28,0,0,0,.58,1.59c.49-.28,1-.6,1.46-.83.74-.34,1.75-1.08,2.18-.83a3.28,3.28,0,0,1,1.36,2.24A2.36,2.36,0,0,1,21.45,25c-.47.26-1.33-.23-2-.26a3.57,3.57,0,0,0-2,.26c-.3.22-.27,1.34,0,1.81,1.6,2.59,3.32,5.1,5.14,7.85C27,31.41,31.4,28.73,34.42,24.53c.72-1,.68-2.87.35-4.18-.56-2.23-1.71-4.3-2.47-6.48-1.1-3.2-.48-4.45,2.29-6.34,1.53-1,2.75-2.53,4.2-3.72A19,19,0,0,1,43,.78a4,4,0,0,1,4.32,1c2,1.79,4.23,3.43,6.41,5.06a6.34,6.34,0,0,1,2.51,7.36c-.55,1.82-1,3.66-1.64,5.47a3.66,3.66,0,0,0,1.45,4.48c3.78,2.66,7.64,5.19,11.64,7.89a25,25,0,0,0,4.88-8.73,1.92,1.92,0,0,0-.52-1.72,2.06,2.06,0,0,0-1.79.23c-1.06.7-2.19,1-2.86-.11a3.7,3.7,0,0,1-.1-2.8c.52-1.38,1.71-1.38,3-.33a7.27,7.27,0,0,0,1.64.77c.13-.62.54-1.36.33-1.83A13.71,13.71,0,0,0,70,13.66c-1.4-1.52-1.17-4.22.77-4.95.55-.2,1.69-.14,1.85.16a4.84,4.84,0,0,1,.62,2.8c-.43,2.66-.53,2.64,1.77,4.28.88-1.94,1.78-3.77,2.49-5.66.13-.35-.78-1-.79-1.52,0-1.11-.13-2.57.5-3.28a2.61,2.61,0,0,1,3.86,0c1.14,1.09.93,2.38-.34,3.32-2.29,1.7-2.37,4-2.25,6.5,2.84.39,4.48-.49,5.08-2.7.33-1.23,1.1-2.22,2.24-1.74a3.11,3.11,0,0,1,1.45,2.55c-.11.87-1.36,2.36-1.94,2.29-3.09-.41-4.63,1.68-6.26,3.51a39.19,39.19,0,0,0-7,12.15c-2.4,6.17-1.24,6-7.92,3.65-1.28-.45-2.59-.82-3.9-1.21a1.77,1.77,0,0,0-.59,0c3.71,8.84,3.71,8.84,2,15.86L71,44.94a14.31,14.31,0,0,1,1.5-.67c1.58-.58,2.19-.19,2,1.54a22.62,22.62,0,0,1-.88,4.39C72.91,52.65,72,55.06,71,58c.94-.58,1.63-.79,2-1.25a50.48,50.48,0,0,0,3.32-4.88,6.18,6.18,0,0,0,.28-5.32,3.76,3.76,0,0,1,.64-3c.27-.36,2-.07,2.64.47,1.05.9.45,2-.28,3-.55.81-.5,2-.75,3.21,3.18-.5,4.67-2.26,4.49-4.73-.12-1.68,1.16-2.23,2.4-2.59,1.06-.31,2.69,1.31,2.86,2.7s-.5,2.18-1.95,2.28c-2.69.19-3.3,2.43-4.66,4.69,2.67-.14,5,1.26,7-1.33,1.12-1.49,2.55-1.22,3.73.19v2.87c-1.51,2.33-2.13,2.86-4.13.79a1,1,0,0,0-.7-.35c-2.93.42-6.16.25-8.7,1.49-4.39,2.13-7.4,6.1-10.33,10a15.3,15.3,0,0,1-2.14,2.46,2.63,2.63,0,0,1-1.92.67c-.39-.08-.81-1.08-.82-1.66a27.31,27.31,0,0,1,.32-4.87c.39-2.18,1-4.32,1.61-6.81-1.78,1.27-3.08,2.6-4.65,3.24A27.36,27.36,0,0,0,51,66.79a4.91,4.91,0,0,1-6.88.53,31.4,31.4,0,0,0-12.22-6.65c-1.39-.4-2.57-1.51-4.38-2.62.58,1.59,1,2.57,1.31,3.59.73,2.46,1.51,4.91,2,7.41.16.75-.42,1.67-.66,2.51a7.66,7.66,0,0,1-2.51-.94c-1.72-1.54-3.2-3.34-4.9-4.91-4.38-4-9-7.67-15.57-6.33a6.69,6.69,0,0,0-2.72,1.35c-1.23,1-2.18,1-3.07-.33-.34-.49-.63-1-.95-1.51Z"/></g></g></svg>