<svg xmlns="http://www.w3.org/2000/svg" width="61" height="61" viewBox="0 0 61 61">
  <g id="Group_25" data-name="Group 25" transform="translate(-1067.5 -480.5)">
    <path id="Stroke_9" data-name="Stroke 9" d="M43.6,60H16.4A16.4,16.4,0,0,1,0,43.6V16.4A16.4,16.4,0,0,1,16.4,0H43.6A16.4,16.4,0,0,1,60,16.4V43.6A16.4,16.4,0,0,1,43.6,60Z" transform="translate(1068 481)" fill="none" stroke="#1e3664" stroke-miterlimit="10" stroke-width="1"/>
    <g id="Group_24" data-name="Group 24" transform="translate(-1.5 -4)">
      <g id="Group_23" data-name="Group 23" transform="translate(0.034 -0.466)">
        <path id="Stroke_75" data-name="Stroke 75" d="M.5,0V3.342" transform="translate(1103.235 521.949)" fill="none" stroke="#1e3664" stroke-linecap="round" stroke-miterlimit="10" stroke-width="1"/>
        <path id="Stroke_77" data-name="Stroke 77" d="M.5,0V3.342" transform="translate(1098.936 516.966)" fill="none" stroke="#1e3664" stroke-linecap="round" stroke-miterlimit="10" stroke-width="1"/>
        <path id="Stroke_79" data-name="Stroke 79" d="M.5,0V3.342" transform="translate(1107.534 516.966)" fill="none" stroke="#1e3664" stroke-linecap="round" stroke-miterlimit="10" stroke-width="1"/>
        <path id="Stroke_81" data-name="Stroke 81" d="M.5,3.342V0" transform="translate(1091.764 516.966)" fill="none" stroke="#1e3664" stroke-linecap="round" stroke-miterlimit="10" stroke-width="1"/>
        <path id="Stroke_83" data-name="Stroke 83" d="M.5,0V3.342" transform="translate(1098.936 530.611)" fill="none" stroke="#1e3664" stroke-linecap="round" stroke-miterlimit="10" stroke-width="1"/>
        <path id="Stroke_85" data-name="Stroke 85" d="M.5,0V3.342" transform="translate(1107.534 530.611)" fill="none" stroke="#1e3664" stroke-linecap="round" stroke-miterlimit="10" stroke-width="1"/>
        <path id="Stroke_87" data-name="Stroke 87" d="M.5,3.342V0" transform="translate(1091.764 530.611)" fill="none" stroke="#1e3664" stroke-linecap="round" stroke-miterlimit="10" stroke-width="1"/>
        <path id="Stroke_89" data-name="Stroke 89" d="M.5,3.342V0" transform="translate(1096.064 521.949)" fill="none" stroke="#1e3664" stroke-linecap="round" stroke-miterlimit="10" stroke-width="1"/>
        <path id="Stroke_91" data-name="Stroke 91" d="M.5,3.342V0" transform="translate(1087.466 521.949)" fill="none" stroke="#1e3664" stroke-linecap="round" stroke-miterlimit="10" stroke-width="1"/>
      </g>
      <g id="Group_22" data-name="Group 22" transform="translate(218.233 -10.976)">
        <g id="Group_16" data-name="Group 16" transform="translate(865.767 507.476)">
          <path id="Fill_47" data-name="Fill 47" d="M29.637,8.792A5.763,5.763,0,0,1,19.628,12.7a7.99,7.99,0,0,1-12.22.851A4.644,4.644,0,0,1,4.526,14.57a4.532,4.532,0,0,1,0-9.064,3.944,3.944,0,0,1,.993.118A8,8,0,0,1,20.254,4.3a5.754,5.754,0,0,1,9.383,4.49" fill="#fff"/>
          <path id="Stroke_49" data-name="Stroke 49" d="M29.637,8.792A5.763,5.763,0,0,1,19.628,12.7a7.99,7.99,0,0,1-12.22.851A4.644,4.644,0,0,1,4.526,14.57a4.532,4.532,0,0,1,0-9.064,3.944,3.944,0,0,1,.993.118A8,8,0,0,1,20.254,4.3a5.754,5.754,0,0,1,9.383,4.49Z" fill="none" stroke="#1e3664" stroke-miterlimit="10" stroke-width="1"/>
        </g>
      </g>
    </g>
  </g>
</svg>
