<?xml version="1.0" encoding="utf-8"?><svg viewBox="0 0 100 100" xmlns="http://www.w3.org/2000/svg" width="47px" height="47px" xmlns:xlink="http://www.w3.org/1999/xlink" style="width:100%;height:100%;background-size:initial;background-repeat-y:initial;background-repeat-x:initial;background-position-y:initial;background-position-x:initial;background-origin:initial;background-image:initial;background-color:rgb(241, 242, 243);background-clip:initial;background-attachment:initial;animation-play-state:paused" ><g class="ldl-scale" style="transform-origin:50% 50%;transform:rotate(0deg) scale(0.8, 0.8);animation-play-state:paused" ><path d="M5 89.3h90v4H5z" fill="#333" style="fill:rgb(79, 133, 184);animation-play-state:paused" ></path>
<g style="animation-play-state:paused" ><path fill="#333" d="M64.8 53.9l-30-5.3L5 61.4v7.4l27.4-6.7c2-.5 4.2-.3 6.1.6l23.1 9.5c2.6 1.2 5.7 1.1 8.2-.2L95 57.1V39.8L64.8 53.9z" style="fill:rgb(79, 133, 184);animation-play-state:paused" ></path>
<path fill="#333" d="M34.3 44.5l30 5.3L95 35.4V6.7L68.2 33.8c-1.4 1.4-3.5 1.8-5.3.9L38.1 22.9a4.6 4.6 0 0 0-5.2.9L5 51v6.1l29.3-12.6z" style="fill:rgb(79, 133, 184);animation-play-state:paused" ></path></g>
<metadata xmlns:d="https://loading.io/stock/" style="animation-play-state:paused" ><d:name style="animation-play-state:paused" >theme river</d:name>
<d:tags style="animation-play-state:paused" >theme river,streamgraph,area chart,trend,topic,visualization,visualize</d:tags>
<d:license style="animation-play-state:paused" >by</d:license>
<d:slug style="animation-play-state:paused" >wa9bug</d:slug></metadata></g><!-- generated by https://loading.io/ --></svg>