<svg xmlns="http://www.w3.org/2000/svg" width="17.421" height="17.28" viewBox="0 0 17.421 17.28">
  <g id="Icon" transform="translate(0)">
    <g id="Icon-2" data-name="Icon" transform="translate(0)">
      <path id="Path_146" data-name="Path 146" d="M16.56,17.28H6.48a.721.721,0,0,1-.72-.72V11.52a.36.36,0,0,1,.72,0v5.04H16.56V.72H6.48V5.76a.36.36,0,0,1-.72,0V.72A.721.721,0,0,1,6.48,0H16.56a.721.721,0,0,1,.72.72V16.56A.721.721,0,0,1,16.56,17.28ZM1.3,8.28H12.6a.36.36,0,1,1,0,.72H1.3l2.9,2.613a.36.36,0,1,1-.482.535l-3.6-3.24S.116,8.9.114,8.9a.369.369,0,0,1-.063-.087.315.315,0,0,1-.02-.03.351.351,0,0,1,0-.287.315.315,0,0,1,.02-.03A.369.369,0,0,1,.114,8.38s0-.005.005-.007l3.6-3.24a.36.36,0,1,1,.482.535Z" fill="#66a19c"/>
    </g>
    <path id="Color_Overlay" data-name="Color Overlay" d="M6.48,17.28a.721.721,0,0,1-.719-.72V11.52a.36.36,0,1,1,.719,0v5.04H16.561V.72H6.48V5.76a.36.36,0,1,1-.719,0V.72A.721.721,0,0,1,6.48,0H16.561a.722.722,0,0,1,.72.72V16.56a.722.722,0,0,1-.72.72ZM3.72,12.147.12,8.907S.117,8.9.114,8.9a.37.37,0,0,1-.063-.086.289.289,0,0,1-.02-.031.341.341,0,0,1,0-.286.22.22,0,0,1,.02-.031A.353.353,0,0,1,.114,8.38s0-.005.005-.007l3.6-3.24a.36.36,0,1,1,.482.535L1.3,8.28H12.6a.36.36,0,0,1,0,.72H1.3l2.9,2.613a.36.36,0,1,1-.482.535Z" transform="translate(0.14 0)" fill="#66a19c"/>
  </g>
</svg>
