<svg xmlns="http://www.w3.org/2000/svg" width="61" height="61.001" viewBox="0 0 61 61.001">
  <g id="Group_17" data-name="Group 17" transform="translate(-744 -480.5)">
    <path id="Stroke_3" data-name="Stroke 3" d="M43.6,60H16.4A16.4,16.4,0,0,1,0,43.6V16.4A16.4,16.4,0,0,1,16.4,0H43.6A16.4,16.4,0,0,1,60,16.4V43.6A16.4,16.4,0,0,1,43.6,60Z" transform="translate(744.5 481)" fill="#1e3664" stroke="#1e3664" stroke-miterlimit="10" stroke-width="1"/>
    <g id="Group_15" data-name="Group 15" transform="translate(99 0)">
      <path id="Stroke_11" data-name="Stroke 11" d="M0,5.7a5.7,5.7,0,1,1,5.7,5.7A5.706,5.706,0,0,1,0,5.7Z" transform="translate(661.5 505)" fill="none" stroke="#FFFFFF" stroke-linecap="round" stroke-miterlimit="10" stroke-width="1"/>
      <g id="Group_10" data-name="Group 10" transform="translate(-0.102 0.06)">
        <path id="Stroke_17" data-name="Stroke 17" d="M4.683.5H0" transform="translate(654.102 509.94)" fill="none" stroke="#FFFFFF" stroke-linecap="round" stroke-miterlimit="10" stroke-width="1"/>
        <path id="Stroke_17-2" data-name="Stroke 17" d="M4.683.5H0" transform="translate(676.102 509.94)" fill="none" stroke="#FFFFFF" stroke-linecap="round" stroke-miterlimit="10" stroke-width="1"/>
      </g>
      <g id="Group_13" data-name="Group 13" transform="translate(-165.455 621.952) rotate(-45)">
        <path id="Stroke_17-3" data-name="Stroke 17" d="M4.683.5H0" transform="translate(654.102 509.94)" fill="none" stroke="#FFFFFF" stroke-linecap="round" stroke-miterlimit="10" stroke-width="1"/>
        <path id="Stroke_17-4" data-name="Stroke 17" d="M4.683.5H0" transform="translate(676.102 509.94)" fill="none" stroke="#FFFFFF" stroke-linecap="round" stroke-miterlimit="10" stroke-width="1"/>
      </g>
      <g id="Group_11" data-name="Group 11" transform="translate(156.56 1178.285) rotate(-90)">
        <path id="Stroke_17-5" data-name="Stroke 17" d="M4.683.5H0" transform="translate(654.102 509.94)" fill="none" stroke="#FFFFFF" stroke-linecap="round" stroke-miterlimit="10" stroke-width="1"/>
        <path id="Stroke_17-6" data-name="Stroke 17" d="M4.683.5H0" transform="translate(676.102 509.94)" fill="none" stroke="#FFFFFF" stroke-linecap="round" stroke-miterlimit="10" stroke-width="1"/>
      </g>
      <g id="Group_12" data-name="Group 12" transform="translate(778.452 1343.823) rotate(-135)">
        <path id="Stroke_17-7" data-name="Stroke 17" d="M4.683.5H0" transform="translate(654.102 509.94)" fill="none" stroke="#FFFFFF" stroke-linecap="round" stroke-miterlimit="10" stroke-width="1"/>
        <path id="Stroke_17-8" data-name="Stroke 17" d="M4.683.5H0" transform="translate(676.102 509.94)" fill="none" stroke="#FFFFFF" stroke-linecap="round" stroke-miterlimit="10" stroke-width="1"/>
      </g>
    </g>
    <path id="Fill_47" data-name="Fill 47" d="M30.274,8.981a5.886,5.886,0,0,1-10.224,4,8.162,8.162,0,0,1-12.483.869,4.744,4.744,0,0,1-2.944,1.038,4.629,4.629,0,0,1,0-9.259,4.029,4.029,0,0,1,1.014.121A8.174,8.174,0,0,1,20.69,4.394a5.878,5.878,0,0,1,9.584,4.587" transform="translate(764.767 507.476)" fill="#fff"/>
    <path id="Stroke_49" data-name="Stroke 49" d="M30.274,8.981a5.886,5.886,0,0,1-10.224,4,8.162,8.162,0,0,1-12.483.869,4.744,4.744,0,0,1-2.944,1.038,4.629,4.629,0,0,1,0-9.259,4.029,4.029,0,0,1,1.014.121A8.174,8.174,0,0,1,20.69,4.394a5.878,5.878,0,0,1,9.584,4.587Z" transform="translate(764.767 507.476)" fill="none" stroke="#1e3664" stroke-miterlimit="10" stroke-width="1"/>
  </g>
</svg>
