<svg xmlns="http://www.w3.org/2000/svg" viewBox="0 0 134.27 116"><defs><style>.cls-1{fill:#fff;}</style></defs><g id="Layer_2" data-name="Layer 2"><g id="page_1_copy_2" data-name="page 1 copy 2"><path class="cls-1" d="M97.87.31c-3.12,2.12-6.19,3.82-8.79,6.05-6,5.11-5.87,10.38,0,15.57a70.4,70.4,0,0,1,6.38,5.64c4.87,5.52,3.66,11.51-2.68,15.33-5,3-11,5.8-10.92,12.58.09,7,6.14,10,11.49,12.68,6.43,3.25,13.38,5.49,19.83,8.69,5.68,2.82,11.42,5.82,16.34,9.71,6.39,5,6.33,11.6-.15,16.38-10.19,7.51-21.52,13-34.62,13-16.15.07-32.3-.42-48.45-.52-15.66-.1-31.32,0-46.3,0,9.89-1.94,20.66-3.6,31.18-6.22,11.25-2.8,22.38-6.17,33.32-10,4.48-1.55,8.66-4.46,12.37-7.47,3.94-3.21,4-7.34.24-10.82-2.88-2.7-6.49-4.66-9.87-6.81S60.11,70.33,57,67.88C49.41,62,49.31,55.43,57.16,50c5.17-3.58,11.23-5.92,16.86-8.87a30.48,30.48,0,0,0,6-3.54c4.93-4.28,5.47-8.86.72-13.29C74,18,73.46,10.88,83.6,4.42,87.79,1.76,92.07-.92,97.87.31"/></g></g></svg>