<svg xmlns="http://www.w3.org/2000/svg" viewBox="0 0 97.51 115"><defs><style>.cls-1{fill:#b6d2dc;}</style></defs><g id="Layer_2" data-name="Layer 2"><g id="page_1_copy" data-name="page 1 copy"><path class="cls-1" d="M92.62,102.94c6.47-4.78,6.53-11.33.15-16.38-4.92-3.89-10.67-6.89-16.35-9.71C70,73.65,63,71.41,56.59,68.16c-5.35-2.7-11.4-5.72-11.48-12.68C45,48.7,51,45.92,56,42.9c6.35-3.82,7.56-9.81,2.69-15.33a70.4,70.4,0,0,0-6.38-5.64c-5.87-5.19-6-10.46,0-15.57C54.92,4.13,58,2.43,61.11.31,55.31-.92,51,1.76,46.84,4.42,36.71,10.88,37.2,18,44,24.29c4.75,4.43,4.21,9-.71,13.29a30.86,30.86,0,0,1-6,3.54c-5.63,3-11.68,5.29-16.85,8.87-7.86,5.44-7.76,12-.19,17.89,3.14,2.45,6.88,4.13,10.27,6.3s7,4.11,9.86,6.81c3.73,3.48,3.7,7.61-.24,10.81-3.7,3-7.89,5.93-12.36,7.48Q14.06,104,0,107.77a24.49,24.49,0,0,0,2.05,2A21.1,21.1,0,0,0,16.41,115c11.88,0,23.75,0,35.63,0h15.4C76.66,113.08,85,108.58,92.62,102.94Z"/></g></g></svg>