<?xml version="1.0" encoding="utf-8"?>
<svg xmlns="http://www.w3.org/2000/svg" xmlns:xlink="http://www.w3.org/1999/xlink" style="margin: auto; background: none; display: block; shape-rendering: auto;" width="200px" height="200px" viewBox="0 0 100 100" preserveAspectRatio="xMidYMid">
<g transform="rotate(0 50 50)">
  <rect x="48" y="22" rx="0" ry="0" width="4" height="16" fill="#66a19c">
    <animate attributeName="opacity" values="1;0" keyTimes="0;1" dur="0.9090909090909091s" begin="-0.7954545454545454s" repeatCount="indefinite"></animate>
  </rect>
</g><g transform="rotate(45 50 50)">
  <rect x="48" y="22" rx="0" ry="0" width="4" height="16" fill="#66a19c">
    <animate attributeName="opacity" values="1;0" keyTimes="0;1" dur="0.9090909090909091s" begin="-0.6818181818181818s" repeatCount="indefinite"></animate>
  </rect>
</g><g transform="rotate(90 50 50)">
  <rect x="48" y="22" rx="0" ry="0" width="4" height="16" fill="#66a19c">
    <animate attributeName="opacity" values="1;0" keyTimes="0;1" dur="0.9090909090909091s" begin="-0.5681818181818181s" repeatCount="indefinite"></animate>
  </rect>
</g><g transform="rotate(135 50 50)">
  <rect x="48" y="22" rx="0" ry="0" width="4" height="16" fill="#66a19c">
    <animate attributeName="opacity" values="1;0" keyTimes="0;1" dur="0.9090909090909091s" begin="-0.45454545454545453s" repeatCount="indefinite"></animate>
  </rect>
</g><g transform="rotate(180 50 50)">
  <rect x="48" y="22" rx="0" ry="0" width="4" height="16" fill="#66a19c">
    <animate attributeName="opacity" values="1;0" keyTimes="0;1" dur="0.9090909090909091s" begin="-0.3409090909090909s" repeatCount="indefinite"></animate>
  </rect>
</g><g transform="rotate(225 50 50)">
  <rect x="48" y="22" rx="0" ry="0" width="4" height="16" fill="#66a19c">
    <animate attributeName="opacity" values="1;0" keyTimes="0;1" dur="0.9090909090909091s" begin="-0.22727272727272727s" repeatCount="indefinite"></animate>
  </rect>
</g><g transform="rotate(270 50 50)">
  <rect x="48" y="22" rx="0" ry="0" width="4" height="16" fill="#66a19c">
    <animate attributeName="opacity" values="1;0" keyTimes="0;1" dur="0.9090909090909091s" begin="-0.11363636363636363s" repeatCount="indefinite"></animate>
  </rect>
</g><g transform="rotate(315 50 50)">
  <rect x="48" y="22" rx="0" ry="0" width="4" height="16" fill="#66a19c">
    <animate attributeName="opacity" values="1;0" keyTimes="0;1" dur="0.9090909090909091s" begin="0s" repeatCount="indefinite"></animate>
  </rect>
</g>
<!-- [ldio] generated by https://loading.io/ --></svg>