<svg xmlns="http://www.w3.org/2000/svg" width="61" height="61" viewBox="0 0 61 61">
  <g id="Group_155" data-name="Group 155" transform="translate(-636 -480.5)">
    <path id="Stroke_1" data-name="Stroke 1" d="M43.6,60H16.4A16.4,16.4,0,0,1,0,43.6V16.4A16.4,16.4,0,0,1,16.4,0H43.6A16.4,16.4,0,0,1,60,16.4V43.6A16.4,16.4,0,0,1,43.6,60Z" transform="translate(636.5 481)" fill="#1e3664" stroke="#1e3664" stroke-miterlimit="10" stroke-width="1"/>
    <g id="Group_14" data-name="Group 14" transform="translate(-1)">
      <path id="Stroke_11" data-name="Stroke 11" d="M0,5.7a5.7,5.7,0,1,1,5.7,5.7A5.706,5.706,0,0,1,0,5.7Z" transform="translate(661.5 505)" fill="none" stroke="#FFFFFF" stroke-linecap="round" stroke-miterlimit="10" stroke-width="1"/>
      <g id="Group_10" data-name="Group 10" transform="translate(-0.102 0.06)">
        <path id="Stroke_17" data-name="Stroke 17" d="M4.683.5H0" transform="translate(654.102 509.94)" fill="none" stroke="#FFFFFF" stroke-linecap="round" stroke-miterlimit="10" stroke-width="1"/>
        <path id="Stroke_17-2" data-name="Stroke 17" d="M4.683.5H0" transform="translate(676.102 509.94)" fill="none" stroke="#FFFFFF" stroke-linecap="round" stroke-miterlimit="10" stroke-width="1"/>
      </g>
      <g id="Group_13" data-name="Group 13" transform="translate(-165.455 621.952) rotate(-45)">
        <path id="Stroke_17-3" data-name="Stroke 17" d="M4.683.5H0" transform="translate(654.102 509.94)" fill="none" stroke="#FFFFFF" stroke-linecap="round" stroke-miterlimit="10" stroke-width="1"/>
        <path id="Stroke_17-4" data-name="Stroke 17" d="M4.683.5H0" transform="translate(676.102 509.94)" fill="none" stroke="#FFFFFF" stroke-linecap="round" stroke-miterlimit="10" stroke-width="1"/>
      </g>
      <g id="Group_11" data-name="Group 11" transform="translate(156.56 1178.285) rotate(-90)">
        <path id="Stroke_17-5" data-name="Stroke 17" d="M4.683.5H0" transform="translate(654.102 509.94)" fill="none" stroke="#FFFFFF" stroke-linecap="round" stroke-miterlimit="10" stroke-width="1"/>
        <path id="Stroke_17-6" data-name="Stroke 17" d="M4.683.5H0" transform="translate(676.102 509.94)" fill="none" stroke="#FFFFFF" stroke-linecap="round" stroke-miterlimit="10" stroke-width="1"/>
      </g>
      <g id="Group_12" data-name="Group 12" transform="translate(778.452 1343.823) rotate(-135)">
        <path id="Stroke_17-7" data-name="Stroke 17" d="M4.683.5H0" transform="translate(654.102 509.94)" fill="none" stroke="#FFFFFF" stroke-linecap="round" stroke-miterlimit="10" stroke-width="1"/>
        <path id="Stroke_17-8" data-name="Stroke 17" d="M4.683.5H0" transform="translate(676.102 509.94)" fill="none" stroke="#FFFFFF" stroke-linecap="round" stroke-miterlimit="10" stroke-width="1"/>
      </g>
    </g>
  </g>
</svg>
