<svg xmlns="http://www.w3.org/2000/svg" xmlns:xlink="http://www.w3.org/1999/xlink" width="18.104" height="18.104" viewBox="0 0 18.104 18.104">
  <defs>
    <clipPath id="clip-path">
      <rect id="Rectangle_2119" data-name="Rectangle 2119" width="18.105" height="18.105" transform="translate(1311.472 648.385) rotate(-90)" fill="#b0b4b4" stroke="#707070" stroke-width="1"/>
    </clipPath>
  </defs>
  <g id="Mask_Group_75" data-name="Mask Group 75" transform="translate(-1311.472 -630.281)" clip-path="url(#clip-path)">
    <g id="garbage" transform="translate(1311.472 630.281)">
      <g id="Group_3742" data-name="Group 3742">
        <path id="Path_5408" data-name="Path 5408" d="M16.6,2.606H12.834V1.991A1.994,1.994,0,0,0,10.843,0H7.262A1.994,1.994,0,0,0,5.271,1.991v.614H1.5a.5.5,0,0,0,0,1h.908V15.417A2.691,2.691,0,0,0,5.1,18.1h7.906a2.691,2.691,0,0,0,2.687-2.687V3.61H16.6a.5.5,0,0,0,0-1ZM6.276,1.991A.988.988,0,0,1,7.262,1h3.581a.988.988,0,0,1,.986.986v.614H6.276Zm8.412,13.426A1.685,1.685,0,0,1,13.005,17.1H5.1a1.685,1.685,0,0,1-1.682-1.682V3.61H14.691V15.417Z" fill="#b0b4b4"/>
        <path id="Path_5409" data-name="Path 5409" d="M9.052,15.3a.5.5,0,0,0,.5-.5V5.914a.5.5,0,0,0-1,0v8.877A.5.5,0,0,0,9.052,15.3Z" fill="#b0b4b4"/>
        <path id="Path_5410" data-name="Path 5410" d="M5.773,14.743a.5.5,0,0,0,.5-.5V6.465a.5.5,0,0,0-1,0v7.776A.5.5,0,0,0,5.773,14.743Z" fill="#b0b4b4"/>
        <path id="Path_5411" data-name="Path 5411" d="M12.331,14.743a.5.5,0,0,0,.5-.5V6.465a.5.5,0,1,0-1,0v7.776A.5.5,0,0,0,12.331,14.743Z" fill="#b0b4b4"/>
      </g>
    </g>
  </g>
</svg>
