<svg xmlns="http://www.w3.org/2000/svg" width="16.32" height="16.321" viewBox="0 0 16.32 16.321">
  <g id="Icon" transform="translate(-1664.5 -162.84)">
    <path id="Color_Overlay" data-name="Color Overlay" d="M1661.7,179.16a.866.866,0,0,1-.861-.869v-1.058a.339.339,0,0,1,.176-.3l5.364-2.945a7.12,7.12,0,0,1-1.8-4.6l0-3.106a.353.353,0,0,1,0-.055,4.543,4.543,0,0,1,4.38-3.39l.031,0c1.859,0,4.076,1.363,4.414,3.391a.378.378,0,0,1,0,.055l0,3.106a7.123,7.123,0,0,1-1.8,4.6l5.365,2.945a.341.341,0,0,1,.176.3v1.058a.866.866,0,0,1-.861.869Zm7.3-15.639a3.9,3.9,0,0,0-3.737,2.8l0,3.077a6.328,6.328,0,0,0,1.917,4.4.489.489,0,0,1,.038.047.356.356,0,0,1,.044.052s0,0,0,0a.335.335,0,0,1,.027.088.212.212,0,0,1,.012.039.286.286,0,0,1,0,.048.36.36,0,0,1-.007.082.189.189,0,0,1-.013.022.29.29,0,0,1-.05.094s0,0,0,0-.013.009-.019.015a.338.338,0,0,1-.08.067l-5.6,3.077v.856a.188.188,0,0,0,.182.189h14.6a.185.185,0,0,0,.181-.189v-.856l-5.6-3.074h0l0,0a.331.331,0,0,1-.047-.039.3.3,0,0,1-.052-.042l0,0a.348.348,0,0,1-.049-.092.232.232,0,0,1-.013-.025.4.4,0,0,1-.008-.081c0-.016-.005-.032,0-.049a.309.309,0,0,1,.013-.04.335.335,0,0,1,.027-.087s0,0,0,0a.327.327,0,0,1,.048-.057.26.26,0,0,1,.034-.042,6.313,6.313,0,0,0,1.917-4.406l0-3.076a3.9,3.9,0,0,0-3.71-2.8Z" transform="translate(3.66)" fill="#66a19c"/>
  </g>
</svg>
