<svg xmlns="http://www.w3.org/2000/svg" viewBox="0 0 107.97 78.11"><defs><style>.cls-1,.cls-2{fill:#fff;}.cls-2{stroke:#fff;stroke-miterlimit:10;}</style></defs><g id="Layer_2" data-name="Layer 2"><g id="page_1_copy_2" data-name="page 1 copy 2"><path class="cls-1" d="M90.38,78.11c-4-1.33-8.1-2.34-11.86-4.13-2.48-1.18-4.37-3.56-6.65-5.23a7.29,7.29,0,0,0-3.26-1.18,40.51,40.51,0,0,1-14.47-4.63,26.91,26.91,0,0,1-8.74-7.56,3.07,3.07,0,0,0-4.52,0c-5.33,7.06-13.13,9.3-21.27,10.8a3.2,3.2,0,0,1-2.46-1.26c-.32-.41,0-1.76.5-2.27,2.77-2.88,3.08-6.65,4.15-10-3-1.52-5.88-2.76-8.55-4.34C6.19,44.08,1.53,38.07,0,29.85V25c1.22-3.06,2-6.39,3.73-9.14C8.38,8.41,15.6,4.37,23.8,2.08c3.57-1,7.3-1.4,11-2.08h5.32c3.81.66,7.7,1,11.4,2,9.5,2.63,17.57,7.31,22,16.71a2.21,2.21,0,0,0,1.59.8c2,.22,4.1.12,6.1.49C94,22.4,104.67,27.54,108,41.72V45.8A22.68,22.68,0,0,1,97.54,61.37c-2.71,1.74-5.67,3.1-8.91,4.85,1.05,2.46,1.87,5.3,3.38,7.7,1.36,2.17,1.64,2.63-.4,4.19Zm-66.89-17,.34.59c3.39-1.67,6.87-3.17,10.12-5.08a11.67,11.67,0,0,0,3.76-3.92,4,4,0,0,1,3.59-2.09C49.57,50,57.2,47.55,63.49,42c5.61-5,8.81-11.12,7.18-18.86-1.2-5.74-5-9.74-9.83-12.74-9.64-6-20.2-7.33-31.23-5.6a36.07,36.07,0,0,0-18.69,8.48C2,21.14,1.67,32.68,10.21,41a33.6,33.6,0,0,0,13.7,7.8c2.31.73,2.61,1.25,2,3.57C25.14,55.33,24.3,58.24,23.49,61.16ZM49,54.06a73.69,73.69,0,0,0,6,4.76,32.83,32.83,0,0,0,15.57,5,5.25,5.25,0,0,1,4.64,2.54c2.64,4,7.08,5.41,11.64,6.88-.74-2.59-1.4-4.8-2-7-.68-2.61-.34-3.19,2.22-4a27.66,27.66,0,0,0,13.07-8.33c4.79-5.72,5.25-13,.76-19C94.54,26.43,85.4,24,75.42,23.45,76,41.72,64.24,49.07,49,54.06Z"/><path class="cls-2" d="M104,34.58a7.09,7.09,0,0,0-1.32,1.08l-.1.11a6.38,6.38,0,0,1-9.39,0l-.1-.11a7,7,0,0,0-10.32,0l-.09.11a6.38,6.38,0,0,1-9.39,0l-.06-.07-.39.61a7,7,0,0,0,10.3,0l.1-.11a6.38,6.38,0,0,1,9.39,0l.1.11a7,7,0,0,0,10.31,0l.1-.11a6.6,6.6,0,0,1,.91-.78C104,35.13,104,34.86,104,34.58Z"/><path class="cls-2" d="M104.7,40.56a7.69,7.69,0,0,0-2.07,1.54l-.1.1a6.31,6.31,0,0,1-9.32,0l-.1-.1a7,7,0,0,0-10.38,0l-.1.1a6.31,6.31,0,0,1-9.32,0l-.1-.1a7.18,7.18,0,0,0-3.17-2l-.59.69a6.59,6.59,0,0,1,3.23,1.88l.1.1a7,7,0,0,0,10.38,0l.1-.1a6.31,6.31,0,0,1,9.32,0l.1.1a7,7,0,0,0,10.39,0l.09-.1a7,7,0,0,1,1.69-1.29C104.79,41.13,104.75,40.85,104.7,40.56Z"/><path class="cls-2" d="M102.28,53.27l.72-1.14a6.32,6.32,0,0,1-7.86-1.2l-.1-.1a7,7,0,0,0-10.32,0l-.1.1a6.35,6.35,0,0,1-9.38,0l-.1-.1a7,7,0,0,0-10.32,0l-.1.1a6.35,6.35,0,0,1-9.28.1l-.7.31,0,0,.1.1a7,7,0,0,0,10.31,0l.1-.1a6.36,6.36,0,0,1,9.39,0l.1.1a7,7,0,0,0,10.32,0l.1-.1a6.35,6.35,0,0,1,9.38,0l.1.1a7.09,7.09,0,0,0,5.16,2.27A6.91,6.91,0,0,0,102.28,53.27Z"/><path class="cls-2" d="M99.18,59.39a6.54,6.54,0,0,1-4-2l-.1-.11a7,7,0,0,0-10.38,0l-.1.11a6.33,6.33,0,0,1-9.32,0l-.1-.11a7,7,0,0,0-10.38,0l-.1.11a6.33,6.33,0,0,1-9.32,0l-.1-.11A7.19,7.19,0,0,0,50.08,55v.83a6.45,6.45,0,0,1,4.66,2l.09.11a7,7,0,0,0,10.39,0l.1-.11a6.33,6.33,0,0,1,9.32,0l.1.11a7,7,0,0,0,10.38,0l.1-.11a6.33,6.33,0,0,1,9.32,0l.1.11a7.24,7.24,0,0,0,4.22,2.21C99,59.91,99.07,59.65,99.18,59.39Z"/><path class="cls-1" d="M15.64,26.74c-.55-.69-1.13-1.34-1.63-2a25.34,25.34,0,0,1-3.25-6.26c-.12-.36-.29-.72,0-1.08a.77.77,0,0,1,.88-.25c1.38.53,2.77,1,4.13,1.59a23.24,23.24,0,0,1,6.42,4l.07.05c1.46-.85,2.87-1.69,4.32-2.49a43,43,0,0,1,7-2.94c.75-.26.67-.1.44-.89-.44-1.48-.89-3-1.32-4.43-.11-.37-.19-.77.23-1.06a.7.7,0,0,1,.73-.14c1.07.46,2.14.89,3.19,1.37a33,33,0,0,1,5.59,3.29,1.64,1.64,0,0,0,.81.19c1.22.08,2.45.07,3.66.23a22.26,22.26,0,0,1,13.84,7,13,13,0,0,1,2,2.82,2,2,0,0,1,.05,1.92,10.19,10.19,0,0,1-1.94,2.7,23.51,23.51,0,0,1-14.09,7.19,29,29,0,0,1-6.84,0,1,1,0,0,0-.57.14,48.79,48.79,0,0,1-7.5,4,4.11,4.11,0,0,1-.56.19.77.77,0,0,1-1-.87,20.8,20.8,0,0,1,1.19-4.18l.24-.65c.17-.44.16-.43-.28-.62-1.31-.55-2.62-1.09-3.91-1.68a36,36,0,0,1-5-2.88.48.48,0,0,0-.72.06,23.31,23.31,0,0,1-6.45,3.84c-1.16.51-2.36.92-3.55,1.36-.37.14-.77.22-1.05-.16a.91.91,0,0,1-.17-.62,8.28,8.28,0,0,1,.44-1.3,25,25,0,0,1,4.27-7l.25-.3A.14.14,0,0,0,15.64,26.74Zm33.63,8.57c-3.43-5.8-3.42-11.55,0-17.35-.31-.08-.59-.17-.87-.23a40.55,40.55,0,0,0-6-.51.86.86,0,0,1-.48-.16,37.14,37.14,0,0,0-6.88-4l-.36-.14a3.12,3.12,0,0,0,.08.45c.41,1.13.83,2.26,1.24,3.38q.13.38.24.75a.56.56,0,0,1-.34.73,6.24,6.24,0,0,1-.94.35,37.14,37.14,0,0,0-7.35,2.95c-1.61.88-3.16,1.87-4.73,2.82-.68.42-.74.44-1.34-.06s-1.18-1-1.81-1.51a27.7,27.7,0,0,0-6.59-3.42L13,19.32a2.07,2.07,0,0,0,.06.26,17.72,17.72,0,0,0,3.3,5.31c.35.35.69.7,1,1.07.57.62.56.86,0,1.47l-.25.27a21.67,21.67,0,0,0-4,5.85c-.06.14-.11.29-.19.51.62-.26,1.16-.47,1.69-.7a23.42,23.42,0,0,0,6.65-4.07c.76-.71,1-.72,1.81-.11a37.6,37.6,0,0,0,8.38,4.5c.63.25,1.27.46,1.91.7a.66.66,0,0,1,.47.9c-.07.27-.18.52-.27.77-.38,1-.76,2-1.13,3a3.37,3.37,0,0,0-.11.51,7.61,7.61,0,0,0,.76-.32c1.74-1,3.49-1.92,5.2-2.92a2.47,2.47,0,0,1,2.16-.5,25.64,25.64,0,0,0,7.47-.24C48.36,35.53,48.8,35.42,49.27,35.31Zm-.91-9.09a14,14,0,0,0,2.41,8.23.42.42,0,0,0,.61.21,21.79,21.79,0,0,0,8.28-5.56c.58-.63,1.08-1.34,1.61-2a.69.69,0,0,0,0-.83c-.32-.49-.62-1-1-1.47a19.85,19.85,0,0,0-8.73-6.15c-.49-.19-.5-.18-.8.24A13,13,0,0,0,48.36,26.22Z"/><path class="cls-1" d="M54.08,26.66A1.66,1.66,0,0,1,52.47,25a1.59,1.59,0,0,1,1.6-1.6A1.62,1.62,0,0,1,55.72,25,1.64,1.64,0,0,1,54.08,26.66Z"/></g></g></svg>