<svg xmlns="http://www.w3.org/2000/svg" viewBox="0 0 149.98 30.8"><defs><style>.cls-1{fill:none;stroke:#606060;stroke-miterlimit:10;}.cls-2{fill:#606060;}.cls-3{fill:#fff;}</style></defs><g id="Layer_2" data-name="Layer 2"><g id="page_1_copy_2" data-name="page 1 copy 2"><path class="cls-1" d="M52.71,14.13c.23-.39.47-.76.71-1.14a6.32,6.32,0,0,1-7.86-1.2l-.1-.1a7,7,0,0,0-10.32,0l-.1.1a6.35,6.35,0,0,1-9.38,0l-.1-.1a7,7,0,0,0-10.32,0l-.1.1a6.35,6.35,0,0,1-9.28.1l-.69.31,0,0,.1.1a7,7,0,0,0,10.32,0l.1-.1a6.35,6.35,0,0,1,9.38,0l.1.1a7,7,0,0,0,10.32,0l.1-.1a6.35,6.35,0,0,1,9.38,0l.1.1a7.11,7.11,0,0,0,5.16,2.27A7,7,0,0,0,52.71,14.13Z"/><path class="cls-1" d="M49.61,20.24a6.47,6.47,0,0,1-4-2l-.1-.11a7,7,0,0,0-10.38,0l-.1.11a6.33,6.33,0,0,1-9.32,0l-.1-.11a7,7,0,0,0-10.38,0l-.1.11a6.33,6.33,0,0,1-9.32,0l-.1-.11A7.16,7.16,0,0,0,.5,15.85v.83a6.44,6.44,0,0,1,4.66,2l.1.11a7,7,0,0,0,10.38,0l.1-.11a6.33,6.33,0,0,1,9.32,0l.1.11a7,7,0,0,0,10.38,0l.1-.11a6.33,6.33,0,0,1,9.32,0l.1.11A7.26,7.26,0,0,0,49.29,21C49.39,20.77,49.5,20.51,49.61,20.24Z"/><path class="cls-1" d="M147.71,17.55c.23-.39.47-.77.71-1.14a6.33,6.33,0,0,1-7.86-1.2l-.1-.1a7,7,0,0,0-10.32,0l-.1.1a6.35,6.35,0,0,1-9.38,0l-.1-.1a7,7,0,0,0-10.32,0l-.1.1a6.35,6.35,0,0,1-9.28.1l-.69.3,0,0,.1.11a7,7,0,0,0,10.32,0l.1-.11a6.36,6.36,0,0,1,9.38,0l.1.11a7,7,0,0,0,10.32,0l.1-.11a6.36,6.36,0,0,1,9.38,0l.1.11A7.15,7.15,0,0,0,145.25,18,7,7,0,0,0,147.71,17.55Z"/><path class="cls-1" d="M145.11,23.66a6.43,6.43,0,0,1-4-2l-.1-.1a7.11,7.11,0,0,0-10.38,0l-.1.1a6.39,6.39,0,0,1-9.32,0l-.1-.1a7.13,7.13,0,0,0-10.38,0l-.1.1a6.39,6.39,0,0,1-9.32,0l-.1-.1A7.13,7.13,0,0,0,96,19.26v.84a6.4,6.4,0,0,1,4.66,2l.1.1a7.11,7.11,0,0,0,10.38,0l.1-.1a6.39,6.39,0,0,1,9.32,0l.1.1a7.11,7.11,0,0,0,10.38,0l.1-.1a6.39,6.39,0,0,1,9.32,0l.1.1a7.15,7.15,0,0,0,4.23,2.21C144.89,24.19,145,23.92,145.11,23.66Z"/><path class="cls-2" d="M88.46,25.85c-4-6.7-3.95-13.34.05-20-.36-.1-.67-.2-1-.26a46.51,46.51,0,0,0-7-.6A1,1,0,0,1,80,4.77,42,42,0,0,0,72,.16L71.63,0a3.09,3.09,0,0,0,.09.52c.47,1.3,1,2.6,1.43,3.9.1.29.2.58.28.87a.66.66,0,0,1-.39.84,8.54,8.54,0,0,1-1.1.41,43,43,0,0,0-8.49,3.4C61.6,11,59.81,12.1,58,13.21c-.79.48-.86.49-1.56-.08s-1.36-1.21-2.09-1.75a31.6,31.6,0,0,0-7.61-3.94l-.24-.06a2.06,2.06,0,0,0,.07.29,20.38,20.38,0,0,0,3.81,6.15c.4.4.8.81,1.19,1.22.65.72.65,1,0,1.71l-.29.31a24.81,24.81,0,0,0-4.6,6.76,5.62,5.62,0,0,0-.22.58c.72-.3,1.34-.54,2-.81a26.72,26.72,0,0,0,7.68-4.7c.88-.81,1.12-.83,2.09-.12A43.84,43.84,0,0,0,67.87,24c.73.29,1.47.53,2.2.81a.75.75,0,0,1,.55,1c-.08.3-.2.59-.31.89-.44,1.17-.88,2.34-1.31,3.51a5.91,5.91,0,0,0-.13.58,6.49,6.49,0,0,0,.88-.37c2-1.11,4-2.21,6-3.37a2.82,2.82,0,0,1,2.49-.57,29.8,29.8,0,0,0,8.64-.28Z"/><path class="cls-2" d="M87.4,15.35a16.28,16.28,0,0,0,2.78,9.51.51.51,0,0,0,.71.24,25.23,25.23,0,0,0,9.57-6.42c.67-.74,1.25-1.55,1.86-2.34a.79.79,0,0,0,0-1c-.37-.57-.71-1.16-1.13-1.69A22.83,22.83,0,0,0,91.14,6.58c-.56-.21-.57-.21-.92.28A15,15,0,0,0,87.4,15.35Z"/><circle class="cls-3" cx="97" cy="14.5" r="1.5"/></g></g></svg>