<svg xmlns="http://www.w3.org/2000/svg" viewBox="0 0 87.91 87.48"><defs><style>.cls-1{fill:#fff;}</style></defs><g id="Layer_2" data-name="Layer 2"><g id="page_1_copy_2" data-name="page 1 copy 2"><path class="cls-1" d="M43.85,56.82c-8.3,0-16.61.06-24.91,0C9.7,56.73,2.65,51.58.55,43.54c-2-7.84,1.67-15.4,9.59-20.14a6,6,0,0,0,2.44-3.72C14.25,10.2,19.39,3.6,28.66,1S45.77,1.18,52.1,8.5a8.34,8.34,0,0,0,4.4,2.4,17.94,17.94,0,0,1,12.16,7.89,7.86,7.86,0,0,0,4.28,3.08c9.7,2.31,15.75,9.88,14.88,19.06S79.53,56.64,69.59,56.79C61,56.92,52.43,56.82,43.85,56.82Z"/><path class="cls-1" d="M50.58,69.72a11.36,11.36,0,0,1-.17,2.42c-.28,1-.62,2.45-1.28,2.68s-2.06-.48-2.77-1.16c-3.59-3.43-7.13-6.93-10.52-10.56-.62-.67-.45-2.08-.64-3.14,1.07.26,2.45.18,3.14.84,2.58,2.43,4.94,5.11,7.45,7.76a8.26,8.26,0,0,0,.88-1.14c.56-1.58,1.1-3.17,1.64-4.75a24.51,24.51,0,0,1,4,2.57c3.12,2.93,6.18,5.94,9,9.12.69.76.55,2.28.79,3.45-1.07-.28-2.47-.23-3.15-.91-2.55-2.5-4.87-5.24-7.27-7.89Z"/><path class="cls-1" d="M42.52,79.58l-7.9-8.76c.81-.6,2.17-1.82,2.32-1.69a70.62,70.62,0,0,1,6.73,6.67C44,76.18,43.16,77.6,42.52,79.58Z"/><path class="cls-1" d="M79.16,78.8,72,70.56c.9-.47,2.33-1.55,2.61-1.31A57.24,57.24,0,0,1,81,75.66c.38.45-.36,1.86-.58,2.82Z"/><path class="cls-1" d="M25.78,66.58c-.53,1-.68,1.72-1,1.83-.71.2-1.81.39-2.23,0a76.7,76.7,0,0,1-6.09-6.14c-.38-.42-.18-1.52,0-2.22.09-.31,1.18-.68,1.38-.51C20.53,61.83,23.13,64.21,25.78,66.58Z"/><path class="cls-1" d="M54.85,58.18l7.85,8.73c-.8.6-2.16,1.84-2.3,1.71A72.3,72.3,0,0,1,53.71,62C53.37,61.59,54.21,60.18,54.85,58.18Z"/><path class="cls-1" d="M26.66,67.32l7.94,9.13c-.73.55-2,1.69-2.11,1.57a92.73,92.73,0,0,1-7-6.88C25.19,70.81,26,69.52,26.66,67.32Z"/><path class="cls-1" d="M71.85,78.39c-3-2.38-6-4.73-9-7.19-.26-.22-.07-1.42.3-1.78A2.25,2.25,0,0,1,65,69c2.46.6,6.84,6.77,6.79,9.4Z"/><path class="cls-1" d="M71.81,78.44c2.63-.06,8.77,4.31,9.39,6.78a2.27,2.27,0,0,1-.37,1.85c-.36.36-1.56.55-1.78.29-2.47-2.93-4.82-6-7.2-9Z"/><path class="cls-1" d="M34.69,68.06c-1,.1-2.46.67-3,.2a39.75,39.75,0,0,1-5.76-5.84c-.33-.42.67-1.91,1.06-2.91l8.16,7.07Z"/><path class="cls-1" d="M64.38,58.17,72,67.48a10.41,10.41,0,0,1-1.67,1.29c-2.58-2.36-5.11-4.78-7.51-7.34C62.58,61.23,63.44,60,64.38,58.17Z"/><path class="cls-1" d="M54.64,86.09c-2,.65-3.38,1.49-3.75,1.16a70.23,70.23,0,0,1-6.57-6.68c-.14-.15,1.07-1.48,1.65-2.26Z"/><path class="cls-1" d="M72.08,86.75c-.94.13-2.27.71-2.76.3A51,51,0,0,1,63.26,81c-.32-.38.55-1.78.87-2.71l8.48,7Z"/><path class="cls-1" d="M55.69,77.78l7,8.27c-.93.36-2.34,1.3-2.71,1a53.14,53.14,0,0,1-6.13-6.15c-.38-.46.27-1.8.45-2.73Z"/></g></g></svg>