<svg xmlns="http://www.w3.org/2000/svg" width="29" height="29" viewBox="0 0 29 29">
  <path id="Flora" d="M14,28c-1.405,0-2.341-.693-2.341-4.075,0-.42.015-.878.046-1.361-.217.437-.432.84-.64,1.2C10,25.617,9.062,26.481,8.125,26.481A2.25,2.25,0,0,1,7,26.123c-1.217-.7-1.681-1.773.009-4.7.2-.342.431-.717.715-1.147-.4.267-.787.507-1.146.715a6.618,6.618,0,0,1-3.024,1.1A1.838,1.838,0,0,1,1.876,21c-.7-1.217-.57-2.374,2.358-4.065.345-.2.737-.41,1.2-.64-.491.031-.947.046-1.355.046C.693,16.34,0,15.4,0,14s.693-2.342,4.074-2.342c.429,0,.885.015,1.355.045-.434-.215-.837-.43-1.2-.638A5.917,5.917,0,0,1,1.66,8.788,1.869,1.869,0,0,1,1.875,7,1.836,1.836,0,0,1,3.551,5.907a6.614,6.614,0,0,1,3.023,1.1c.354.2.742.447,1.153.719-.264-.4-.505-.785-.718-1.152A5.918,5.918,0,0,1,5.919,3.318,1.867,1.867,0,0,1,7,1.877a2.244,2.244,0,0,1,1.126-.359c.935,0,1.869.863,2.939,2.715.214.371.429.775.641,1.2-.031-.492-.046-.949-.046-1.36C11.659.693,12.6,0,14,0s2.34.693,2.34,4.074c0,.412-.015.867-.045,1.353.214-.432.429-.833.638-1.194,1.069-1.852,2-2.714,2.939-2.714A2.249,2.249,0,0,1,21,1.877a1.868,1.868,0,0,1,1.079,1.441,5.912,5.912,0,0,1-1.089,3.256c-.216.372-.459.762-.721,1.157.415-.277.8-.519,1.156-.721a6.619,6.619,0,0,1,3.023-1.1A1.839,1.839,0,0,1,26.124,7a1.868,1.868,0,0,1,.215,1.787,5.914,5.914,0,0,1-2.572,2.276c-.362.209-.767.424-1.2.64.482-.031.939-.045,1.358-.045C27.307,11.659,28,12.6,28,14a1.869,1.869,0,0,1-.7,1.653,5.862,5.862,0,0,1-3.347.685H23.93c-.4,0-.845-.014-1.362-.044.435.214.838.43,1.2.64a5.917,5.917,0,0,1,2.573,2.277A1.869,1.869,0,0,1,26.127,21a1.836,1.836,0,0,1-1.676,1.092,6.605,6.605,0,0,1-3.023-1.1c-.363-.209-.751-.452-1.156-.721.282.423.524.812.721,1.155a5.919,5.919,0,0,1,1.089,3.259A1.867,1.867,0,0,1,21,26.123a2.244,2.244,0,0,1-1.126.359c-.935,0-1.869-.863-2.938-2.715-.216-.373-.431-.777-.64-1.2.03.487.044.944.044,1.359C16.343,27.307,15.407,28,14,28Zm0-17.551A3.551,3.551,0,1,0,17.549,14,3.555,3.555,0,0,0,14,10.449Z" transform="translate(0.5 0.5)" fill="none" stroke="#1e3664" stroke-miterlimit="10" stroke-width="1"/>
</svg>
