<svg xmlns="http://www.w3.org/2000/svg" width="61" height="61.001" viewBox="0 0 61 61.001">
  <g id="Group_157" data-name="Group 157" transform="translate(-960.5 -480)">
    <path id="Stroke_7" data-name="Stroke 7" d="M43.6,60H16.4A16.4,16.4,0,0,1,0,43.6V16.4A16.4,16.4,0,0,1,16.4,0H43.6A16.4,16.4,0,0,1,60,16.4V43.6A16.4,16.4,0,0,1,43.6,60Z" transform="translate(961 480.5)" fill="none" stroke="#1e3664" stroke-miterlimit="10" stroke-width="1"/>
    <g id="Group_21" data-name="Group 21" transform="translate(1.666 -0.467)">
      <path id="Stroke_65" data-name="Stroke 65" d="M.5,0V3.342" transform="translate(989.134 521.951)" fill="none" stroke="#1e3664" stroke-linecap="round" stroke-miterlimit="10" stroke-width="1"/>
      <path id="Stroke_69" data-name="Stroke 69" d="M.5,0V3.342" transform="translate(984.834 516.967)" fill="none" stroke="#1e3664" stroke-linecap="round" stroke-miterlimit="10" stroke-width="1"/>
      <path id="Stroke_73" data-name="Stroke 73" d="M.5,0V3.342" transform="translate(993.432 516.967)" fill="none" stroke="#1e3664" stroke-linecap="round" stroke-miterlimit="10" stroke-width="1"/>
    </g>
    <g id="Group_20" data-name="Group 20" transform="translate(110.79 -10.976)">
      <g id="Group_16" data-name="Group 16" transform="translate(865.767 507.476)">
        <path id="Fill_47" data-name="Fill 47" d="M29.637,8.792A5.763,5.763,0,0,1,19.628,12.7a7.99,7.99,0,0,1-12.22.851A4.644,4.644,0,0,1,4.526,14.57a4.532,4.532,0,0,1,0-9.064,3.944,3.944,0,0,1,.993.118A8,8,0,0,1,20.254,4.3a5.754,5.754,0,0,1,9.383,4.49" fill="#fff"/>
        <path id="Stroke_49" data-name="Stroke 49" d="M29.637,8.792A5.763,5.763,0,0,1,19.628,12.7a7.99,7.99,0,0,1-12.22.851A4.644,4.644,0,0,1,4.526,14.57a4.532,4.532,0,0,1,0-9.064,3.944,3.944,0,0,1,.993.118A8,8,0,0,1,20.254,4.3a5.754,5.754,0,0,1,9.383,4.49Z" fill="none" stroke="#1e3664" stroke-miterlimit="10" stroke-width="1"/>
      </g>
    </g>
  </g>
</svg>
