<svg xmlns="http://www.w3.org/2000/svg" width="18.001" height="22.751" viewBox="0 0 18.001 22.751">
  <g id="Flood-watch_Copy" data-name="Flood-watch Copy" transform="translate(0.001 -0.09)">
    <g id="location">
      <g id="Group">
        <path id="Path_2" data-name="Path 2" d="M8.515,21.578s3.68-4.491,4.733-5.694,3.768-3.826,3.768-7.227S15.765,0,8.515,0-.17,5.463.015,8.657s3.591,7.227,3.591,7.227Z" transform="translate(0.485 0.584)" fill="#a60d0c"/>
        <path id="Shape" d="M8.789,22.637a79.688,79.688,0,0,0-5.477-6.631C1.5,13.8.022,11.5,0,8.849A8.9,8.9,0,0,1,9,0a8.9,8.9,0,0,1,9,8.849c-.021,2.647-1.495,4.95-3.312,7.157a79.688,79.688,0,0,0-5.477,6.631.252.252,0,0,1-.422,0Z" transform="translate(0 0.09)" fill="#a60d0c"/>
      </g>
    </g>
    <g id="star" transform="translate(4 4)">
      <path id="Path" d="M9.891,4.168,7.608,6.382l.6,3.2a.366.366,0,0,1-.073.295A.331.331,0,0,1,7.866,10,.325.325,0,0,1,7.7,9.956L5,8.366,2.273,9.947a.325.325,0,0,1-.361-.024.362.362,0,0,1-.133-.353l.6-3.2L.107,4.154a.365.365,0,0,1-.091-.369A.341.341,0,0,1,.3,3.544l3.088-.387L4.7.2A.328.328,0,0,1,5.3.2L6.615,3.163,9.7,3.557a.342.342,0,0,1,.281.243A.365.365,0,0,1,9.891,4.168Z" fill="#fff"/>
    </g>
  </g>
</svg>
