<svg xmlns="http://www.w3.org/2000/svg" xmlns:xlink="http://www.w3.org/1999/xlink" width="61" height="61" viewBox="0 0 61 61">
  <defs>
    <clipPath id="clip-path">
      <path id="Mask" d="M43.6,60H16.4A16.4,16.4,0,0,1,0,43.6V16.4A16.4,16.4,0,0,1,16.4,0H43.6A16.4,16.4,0,0,1,60,16.4V43.6A16.4,16.4,0,0,1,43.6,60Z" fill="none"/>
    </clipPath>
  </defs>
  <g id="Normal_-_unselected" data-name="Normal - unselected" transform="translate(0.5 0.5)">
    <g id="Fill_49" data-name="Fill 49">
      <path id="Mask-2" data-name="Mask" d="M43.6,60H16.4A16.4,16.4,0,0,1,0,43.6V16.4A16.4,16.4,0,0,1,16.4,0H43.6A16.4,16.4,0,0,1,60,16.4V43.6A16.4,16.4,0,0,1,43.6,60Z" fill="none"/>
      <g id="Fill_49-2" data-name="Fill 49" clip-path="url(#clip-path)">
        <path id="Fill_49-3" data-name="Fill 49" d="M69.761,6.818c-2.292,0-3.431-1.6-4.435-3.014C64.394,2.5,63.59,1.364,62,1.364S59.61,2.5,58.677,3.8c-1,1.413-2.144,3.014-4.435,3.014s-3.428-1.6-4.432-3.014C48.88,2.5,48.076,1.364,46.49,1.364S44.1,2.5,43.171,3.8c-1,1.413-2.14,3.014-4.428,3.014s-3.428-1.6-4.432-3.014c-.931-1.31-1.735-2.441-3.32-2.441S28.6,2.494,27.674,3.8c-1,1.414-2.142,3.015-4.43,3.015s-3.427-1.6-4.429-3.014c-.931-1.309-1.735-2.441-3.32-2.441s-2.388,1.13-3.318,2.44c-1,1.414-2.142,3.015-4.432,3.015S4.32,5.217,3.316,3.8C2.386,2.494,1.585,1.364,0,1.364V0C2.288,0,3.425,1.6,4.428,3.014c.93,1.31,1.732,2.441,3.316,2.441s2.389-1.132,3.32-2.441C12.067,1.6,13.2,0,15.494,0s3.428,1.6,4.43,3.015c.931,1.309,1.735,2.44,3.319,2.44s2.389-1.132,3.319-2.441C27.566,1.6,28.7,0,30.991,0s3.428,1.6,4.43,3.014c.931,1.309,1.736,2.441,3.322,2.441s2.386-1.13,3.316-2.44C43.064,1.6,44.2,0,46.49,0s3.427,1.6,4.432,3.014c.93,1.309,1.735,2.441,3.32,2.441s2.392-1.13,3.325-2.441C58.571,1.6,59.711,0,62,0s3.43,1.6,4.433,3.014c.933,1.309,1.737,2.441,3.325,2.441Z" transform="translate(-9.545 49.773)" fill="#1e3664"/>
        <path id="Fill_49_Copy" data-name="Fill 49 Copy" d="M69.761,6.818c-2.292,0-3.431-1.6-4.435-3.014C64.394,2.5,63.59,1.364,62,1.364S59.61,2.5,58.677,3.8c-1,1.413-2.144,3.014-4.435,3.014s-3.428-1.6-4.432-3.014C48.88,2.5,48.076,1.364,46.49,1.364S44.1,2.5,43.171,3.8c-1,1.413-2.14,3.014-4.428,3.014s-3.428-1.6-4.432-3.014c-.931-1.31-1.735-2.441-3.32-2.441S28.6,2.494,27.674,3.8c-1,1.414-2.142,3.015-4.43,3.015s-3.427-1.6-4.429-3.014c-.931-1.309-1.735-2.441-3.32-2.441s-2.388,1.13-3.318,2.44c-1,1.414-2.142,3.015-4.432,3.015S4.32,5.217,3.316,3.8C2.386,2.494,1.585,1.364,0,1.364V0C2.288,0,3.425,1.6,4.428,3.014c.93,1.31,1.732,2.441,3.316,2.441s2.389-1.132,3.32-2.441C12.067,1.6,13.2,0,15.494,0s3.428,1.6,4.43,3.015c.931,1.309,1.735,2.44,3.319,2.44s2.389-1.132,3.319-2.441C27.566,1.6,28.7,0,30.991,0s3.428,1.6,4.43,3.014c.931,1.309,1.736,2.441,3.322,2.441s2.386-1.13,3.316-2.44C43.064,1.6,44.2,0,46.49,0s3.427,1.6,4.432,3.014c.93,1.309,1.735,2.441,3.32,2.441s2.392-1.13,3.325-2.441C58.571,1.6,59.711,0,62,0s3.43,1.6,4.433,3.014c.933,1.309,1.737,2.441,3.325,2.441Z" transform="translate(-9.545 42.273)" fill="#1e3664"/>
      </g>
    </g>
    <path id="Stroke_3" data-name="Stroke 3" d="M43.6,60H16.4A16.4,16.4,0,0,1,0,43.6V16.4A16.4,16.4,0,0,1,16.4,0H43.6A16.4,16.4,0,0,1,60,16.4V43.6A16.4,16.4,0,0,1,43.6,60Z" fill="none" stroke="#1e3664" stroke-miterlimit="10" stroke-width="1"/>
  </g>
</svg>
